{"glyphs":{"0":{"ha":778,"x_min":0,"x_max":0,"o":"m 389 -14 b 25 458 176 -14 25 139 l 25 486 b 389 958 25 806 176 958 b 753 486 601 958 753 806 l 753 458 b 389 -14 753 139 601 -14 m 250 444 b 389 186 250 283 290 186 b 528 444 488 186 528 283 l 528 500 b 389 758 528 661 488 758 b 250 500 290 758 250 661 l 250 444 "},"1":{"ha":778,"x_min":0,"x_max":0,"o":"m 69 208 l 306 208 l 306 700 l 69 571 l 69 808 l 319 944 l 528 944 l 528 208 l 736 208 l 736 0 l 69 0 "},"2":{"ha":778,"x_min":0,"x_max":0,"o":"m 46 611 b 394 958 51 838 194 958 b 732 661 585 958 732 850 b 482 292 732 510 639 419 l 379 208 l 729 208 l 729 0 l 63 0 l 63 204 l 365 463 b 507 653 458 542 507 583 b 392 758 507 722 458 758 b 271 611 325 758 269 719 l 46 611 "},"3":{"ha":778,"x_min":0,"x_max":0,"o":"m 72 944 l 714 944 l 714 756 l 511 586 b 746 300 638 567 746 464 b 394 -14 746 114 604 -14 b 46 333 199 -14 49 100 l 271 333 b 397 186 271 225 328 186 b 521 313 471 186 521 229 b 354 447 521 396 471 447 l 242 447 l 242 575 l 438 736 l 72 736 "},"4":{"ha":778,"x_min":0,"x_max":0,"o":"m 465 178 l 35 178 l 35 375 l 321 944 l 688 944 l 688 381 l 764 381 l 764 178 l 688 178 l 688 0 l 465 0 m 465 381 l 465 796 l 261 381 "},"5":{"ha":778,"x_min":0,"x_max":0,"o":"m 99 944 l 707 944 l 707 736 l 286 736 l 274 565 b 446 636 310 610 367 636 b 746 319 619 636 746 513 b 393 -14 746 114 599 -14 b 46 292 189 -14 53 108 l 271 292 b 390 186 271 226 321 186 b 521 315 464 186 521 231 b 388 456 521 401 464 456 b 258 363 322 456 271 417 l 64 363 "},"6":{"ha":778,"x_min":0,"x_max":0,"o":"m 399 -14 b 39 431 185 -14 39 138 l 39 486 b 396 958 39 796 179 958 b 725 667 593 958 718 828 l 500 667 b 396 772 499 733 456 772 b 264 500 310 772 264 694 l 264 485 b 463 594 299 554 369 594 b 739 303 617 594 739 482 b 399 -14 739 119 604 -14 m 271 304 b 396 172 271 236 311 172 b 514 297 467 172 514 218 b 390 428 514 376 465 428 b 271 304 315 428 271 376 "},"7":{"ha":778,"x_min":0,"x_max":0,"o":"m 482 736 l 42 736 l 42 944 l 743 944 l 743 797 l 408 0 l 163 0 "},"8":{"ha":778,"x_min":0,"x_max":0,"o":"m 389 -14 b 32 261 179 -14 32 90 b 189 476 32 375 99 444 b 46 697 107 517 46 592 b 389 958 46 860 188 958 b 732 697 590 958 732 860 b 589 497 732 592 671 528 b 746 261 679 456 746 375 b 389 -14 746 90 599 -14 m 257 285 b 389 179 257 219 310 179 b 521 285 468 179 521 219 b 389 390 521 350 468 390 b 257 285 310 390 257 350 m 264 665 b 389 565 264 604 314 565 b 514 665 464 565 514 604 b 389 765 514 726 464 765 b 264 665 314 765 264 726 "},"9":{"ha":778,"x_min":0,"x_max":0,"o":"m 379 958 b 739 514 593 958 739 807 l 739 458 b 382 -14 739 149 599 -14 b 53 278 185 -14 60 117 l 278 278 b 382 172 279 211 322 172 b 514 444 468 172 514 250 l 514 460 b 315 350 479 390 408 350 b 39 642 161 350 39 463 b 379 958 39 825 174 958 m 264 647 b 388 517 264 568 313 517 b 507 640 463 517 507 568 b 382 772 507 708 467 772 b 264 647 311 772 264 726 "}," ":{"ha":222,"x_min":0,"x_max":0,"o":""},"A":{"ha":944,"x_min":0,"x_max":0,"o":"m 931 0 l 699 0 l 635 228 l 308 228 l 246 0 l 14 0 l 293 944 l 651 944 m 576 433 l 515 651 l 472 818 l 469 818 l 426 651 l 365 433 "},"Á":{"ha":944,"x_min":0,"x_max":0,"o":"m 931 0 l 699 0 l 635 228 l 308 228 l 246 0 l 14 0 l 293 944 l 651 944 m 458 1229 l 681 1229 l 569 993 l 361 993 m 576 433 l 515 651 l 472 818 l 469 818 l 426 651 l 365 433 "},"Â":{"ha":944,"x_min":0,"x_max":0,"o":"m 931 0 l 699 0 l 635 228 l 308 228 l 246 0 l 14 0 l 293 944 l 651 944 m 354 1229 l 590 1229 l 731 993 l 549 993 l 472 1108 l 396 993 l 214 993 m 576 433 l 515 651 l 472 818 l 469 818 l 426 651 l 365 433 "},"Ä":{"ha":944,"x_min":0,"x_max":0,"o":"m 931 0 l 699 0 l 635 228 l 308 228 l 246 0 l 14 0 l 293 944 l 651 944 m 239 1194 l 442 1194 l 442 997 l 239 997 m 576 433 l 515 651 l 472 818 l 469 818 l 426 651 l 365 433 m 503 1194 l 706 1194 l 706 997 l 503 997 "},"À":{"ha":944,"x_min":0,"x_max":0,"o":"m 931 0 l 699 0 l 635 228 l 308 228 l 246 0 l 14 0 l 293 944 l 651 944 m 486 1229 l 583 993 l 375 993 l 264 1229 m 576 433 l 515 651 l 472 818 l 469 818 l 426 651 l 365 433 "},"Å":{"ha":944,"x_min":0,"x_max":0,"o":"m 931 0 l 699 0 l 635 228 l 308 228 l 246 0 l 14 0 l 293 944 l 651 944 m 290 1160 b 472 1333 290 1260 368 1333 b 654 1160 576 1333 654 1260 b 472 986 654 1060 576 986 b 290 1160 368 986 290 1060 m 576 433 l 515 651 l 472 818 l 469 818 l 426 651 l 365 433 m 410 1160 b 472 1097 410 1122 438 1097 b 535 1160 507 1097 535 1122 b 472 1222 535 1197 507 1222 b 410 1160 438 1222 410 1197 "},"Ã":{"ha":944,"x_min":0,"x_max":0,"o":"m 931 0 l 699 0 l 635 228 l 308 228 l 246 0 l 14 0 l 293 944 l 651 944 m 176 1000 b 350 1231 176 1110 204 1231 b 469 1190 400 1231 431 1217 l 513 1161 b 581 1132 536 1144 556 1132 b 631 1222 622 1132 631 1165 l 768 1222 b 594 992 768 1113 740 992 b 475 1032 544 992 514 1006 l 432 1061 b 364 1090 408 1078 389 1090 b 314 1000 322 1090 314 1057 l 176 1000 m 576 433 l 515 651 l 472 818 l 469 818 l 426 651 l 365 433 "},"Æ":{"ha":1396,"x_min":0,"x_max":0,"o":"m 560 944 l 1357 944 l 1357 739 l 933 739 l 933 576 l 1329 576 l 1329 382 l 933 382 l 933 206 l 1357 206 l 1357 0 l 711 0 l 711 242 l 414 242 l 283 0 l 21 0 m 711 447 l 711 739 l 685 739 l 526 447 "},"B":{"ha":806,"x_min":0,"x_max":0,"o":"m 50 944 l 467 944 b 768 701 643 944 768 858 b 593 486 768 588 701 515 b 782 257 710 457 782 381 b 467 0 782 90 651 0 l 50 0 m 429 194 b 557 292 514 194 557 233 l 557 300 b 429 394 557 360 514 394 l 272 394 l 272 194 m 429 578 b 543 658 506 578 543 608 l 543 667 b 429 750 543 717 506 750 l 272 750 l 272 578 "},"C":{"ha":949,"x_min":0,"x_max":0,"o":"m 494 -14 b 28 472 231 -14 28 169 b 494 958 28 775 231 958 b 926 583 710 958 899 831 l 696 583 b 492 753 674 704 588 753 b 258 486 351 753 258 649 l 258 458 b 492 192 258 296 351 192 b 696 361 588 192 674 240 l 926 361 b 494 -14 899 114 710 -14 "},"Ç":{"ha":949,"x_min":0,"x_max":0,"o":"m 28 472 b 494 958 28 775 231 958 b 926 583 710 958 899 831 l 696 583 b 492 753 674 704 588 753 b 258 486 351 753 258 649 l 258 458 b 492 192 258 296 351 192 b 696 361 588 192 674 240 l 926 361 b 533 -12 900 129 732 3 l 506 -54 b 657 -185 593 -60 657 -97 b 476 -319 657 -282 581 -319 l 351 -319 l 351 -203 l 450 -203 b 506 -171 478 -203 506 -199 b 450 -140 506 -143 478 -140 l 351 -140 l 351 -53 l 385 -3 b 28 472 176 42 28 213 "},"D":{"ha":900,"x_min":0,"x_max":0,"o":"m 50 944 l 399 944 b 872 472 678 944 872 767 b 399 0 872 178 678 0 l 50 0 m 392 206 b 642 458 543 206 642 304 l 642 486 b 392 739 642 640 543 739 l 272 739 l 272 206 "},"Ð":{"ha":976,"x_min":0,"x_max":0,"o":"m 126 378 l 14 378 l 14 572 l 126 572 l 126 944 l 475 944 b 949 472 754 944 949 767 b 475 0 949 178 754 0 l 126 0 m 468 206 b 718 458 619 206 718 304 l 718 486 b 468 739 718 640 619 739 l 349 739 l 349 572 l 542 572 l 542 378 l 349 378 l 349 206 "},"E":{"ha":751,"x_min":0,"x_max":0,"o":"m 50 944 l 713 944 l 713 739 l 272 739 l 272 576 l 685 576 l 685 382 l 272 382 l 272 206 l 713 206 l 713 0 l 50 0 "},"É":{"ha":751,"x_min":0,"x_max":0,"o":"m 50 944 l 713 944 l 713 739 l 272 739 l 272 576 l 685 576 l 685 382 l 272 382 l 272 206 l 713 206 l 713 0 l 50 0 m 368 1229 l 590 1229 l 479 993 l 271 993 "},"Ê":{"ha":751,"x_min":0,"x_max":0,"o":"m 50 944 l 713 944 l 713 739 l 272 739 l 272 576 l 685 576 l 685 382 l 272 382 l 272 206 l 713 206 l 713 0 l 50 0 m 264 1229 l 500 1229 l 640 993 l 458 993 l 382 1108 l 306 993 l 124 993 "},"Ë":{"ha":751,"x_min":0,"x_max":0,"o":"m 50 944 l 713 944 l 713 739 l 272 739 l 272 576 l 685 576 l 685 382 l 272 382 l 272 206 l 713 206 l 713 0 l 50 0 m 149 1194 l 351 1194 l 351 997 l 149 997 m 413 1194 l 615 1194 l 615 997 l 413 997 "},"È":{"ha":751,"x_min":0,"x_max":0,"o":"m 50 944 l 713 944 l 713 739 l 272 739 l 272 576 l 685 576 l 685 382 l 272 382 l 272 206 l 713 206 l 713 0 l 50 0 m 396 1229 l 493 993 l 285 993 l 174 1229 "},"F":{"ha":690,"x_min":0,"x_max":0,"o":"m 50 944 l 665 944 l 665 736 l 272 736 l 272 560 l 656 560 l 656 363 l 272 363 l 272 0 l 50 0 "},"G":{"ha":949,"x_min":0,"x_max":0,"o":"m 464 -14 b 28 472 225 -14 28 169 b 494 958 28 775 231 958 b 911 618 717 958 872 831 l 681 618 b 490 760 661 714 581 760 b 258 486 351 760 258 653 l 258 458 b 496 185 258 292 351 185 b 700 344 597 185 686 238 l 497 344 l 497 533 l 914 533 l 914 0 l 740 0 l 740 117 b 464 -14 682 33 586 -14 "},"H":{"ha":900,"x_min":0,"x_max":0,"o":"m 50 944 l 272 944 l 272 585 l 628 585 l 628 944 l 850 944 l 850 0 l 628 0 l 628 376 l 272 376 l 272 0 l 50 0 "},"I":{"ha":322,"x_min":0,"x_max":0,"o":"m 50 944 l 272 944 l 272 0 l 50 0 "},"Ĳ":{"ha":1022,"x_min":0,"x_max":0,"o":"m 50 944 l 272 944 l 272 0 l 50 0 m 546 333 b 660 192 546 249 576 192 b 765 333 732 192 765 235 l 765 944 l 988 944 l 988 319 b 663 -14 988 82 844 -14 b 329 333 469 -14 329 93 "},"Í":{"ha":322,"x_min":0,"x_max":0,"o":"m 50 944 l 272 944 l 272 0 l 50 0 m 147 1229 l 369 1229 l 258 993 l 50 993 "},"Î":{"ha":322,"x_min":0,"x_max":0,"o":"m 50 944 l 272 944 l 272 0 l 50 0 m 43 1229 l 279 1229 l 419 993 l 238 993 l 161 1108 l 85 993 l -97 993 "},"Ï":{"ha":322,"x_min":0,"x_max":0,"o":"m 50 944 l 272 944 l 272 0 l 50 0 m -72 1194 l 131 1194 l 131 997 l -72 997 m 192 1194 l 394 1194 l 394 997 l 192 997 "},"Ì":{"ha":322,"x_min":0,"x_max":0,"o":"m 50 944 l 272 944 l 272 0 l 50 0 m 175 1229 l 272 993 l 64 993 l -47 1229 "},"J":{"ha":700,"x_min":0,"x_max":0,"o":"m 665 319 b 340 -14 665 82 522 -14 b 7 333 147 -14 7 93 l 224 333 b 338 192 224 249 254 192 b 443 333 410 192 443 235 l 443 944 l 665 944 l 665 319 "},"K":{"ha":843,"x_min":0,"x_max":0,"o":"m 50 944 l 272 944 l 272 526 l 557 944 l 828 944 l 494 479 l 829 0 l 556 0 l 272 431 l 272 0 l 50 0 "},"L":{"ha":675,"x_min":0,"x_max":0,"o":"m 50 944 l 272 944 l 272 208 l 654 208 l 654 0 l 50 0 "},"M":{"ha":1260,"x_min":0,"x_max":0,"o":"m 50 944 l 454 944 l 633 158 l 813 944 l 1210 944 l 1210 0 l 988 0 l 988 640 l 990 813 l 986 813 l 949 644 l 792 0 l 454 0 l 297 644 l 260 813 l 256 813 l 258 640 l 258 0 l 50 0 "},"N":{"ha":972,"x_min":0,"x_max":0,"o":"m 50 944 l 443 944 l 657 311 l 708 147 l 713 147 l 710 319 l 710 944 l 922 944 l 922 0 l 529 0 l 315 633 l 264 797 l 260 797 l 263 625 l 263 0 l 50 0 "},"Ñ":{"ha":972,"x_min":0,"x_max":0,"o":"m 50 944 l 443 944 l 657 311 l 708 147 l 713 147 l 710 319 l 710 944 l 922 944 l 922 0 l 529 0 l 315 633 l 264 797 l 260 797 l 263 625 l 263 0 l 50 0 m 190 1000 b 364 1231 190 1110 218 1231 b 483 1190 414 1231 444 1217 l 526 1161 b 594 1132 550 1144 569 1132 b 644 1222 636 1132 644 1165 l 782 1222 b 608 992 782 1113 754 992 b 489 1032 558 992 528 1006 l 446 1061 b 378 1090 422 1078 403 1090 b 328 1000 336 1090 328 1057 l 190 1000 "},"O":{"ha":989,"x_min":0,"x_max":0,"o":"m 494 -14 b 28 472 231 -14 28 169 b 494 958 28 775 231 958 b 961 472 758 958 961 775 b 494 -14 961 169 758 -14 m 258 458 b 494 192 258 296 351 192 b 731 458 638 192 731 296 l 731 486 b 494 753 731 649 638 753 b 258 486 351 753 258 649 l 258 458 "},"Ó":{"ha":989,"x_min":0,"x_max":0,"o":"m 494 -14 b 28 472 231 -14 28 169 b 494 958 28 775 231 958 b 961 472 758 958 961 775 b 494 -14 961 169 758 -14 m 258 458 b 494 192 258 296 351 192 b 731 458 638 192 731 296 l 731 486 b 494 753 731 649 638 753 b 258 486 351 753 258 649 l 258 458 m 481 1229 l 703 1229 l 592 993 l 383 993 "},"Ô":{"ha":989,"x_min":0,"x_max":0,"o":"m 494 -14 b 28 472 231 -14 28 169 b 494 958 28 775 231 958 b 961 472 758 958 961 775 b 494 -14 961 169 758 -14 m 376 1229 l 613 1229 l 753 993 l 571 993 l 494 1108 l 418 993 l 236 993 m 258 458 b 494 192 258 296 351 192 b 731 458 638 192 731 296 l 731 486 b 494 753 731 649 638 753 b 258 486 351 753 258 649 l 258 458 "},"Ö":{"ha":989,"x_min":0,"x_max":0,"o":"m 494 -14 b 28 472 231 -14 28 169 b 494 958 28 775 231 958 b 961 472 758 958 961 775 b 494 -14 961 169 758 -14 m 258 458 b 494 192 258 296 351 192 b 731 458 638 192 731 296 l 731 486 b 494 753 731 649 638 753 b 258 486 351 753 258 649 l 258 458 m 261 1194 l 464 1194 l 464 997 l 261 997 m 525 1194 l 728 1194 l 728 997 l 525 997 "},"Ò":{"ha":989,"x_min":0,"x_max":0,"o":"m 494 -14 b 28 472 231 -14 28 169 b 494 958 28 775 231 958 b 961 472 758 958 961 775 b 494 -14 961 169 758 -14 m 258 458 b 494 192 258 296 351 192 b 731 458 638 192 731 296 l 731 486 b 494 753 731 649 638 753 b 258 486 351 753 258 649 l 258 458 m 508 1229 l 606 993 l 397 993 l 286 1229 "},"Ø":{"ha":989,"x_min":0,"x_max":0,"o":"m 494 -14 b 272 36 413 -14 338 4 l 244 0 l 36 0 l 140 139 b 28 472 69 221 28 335 b 494 958 28 775 231 958 b 717 908 576 958 651 940 l 744 944 l 953 944 l 849 806 b 961 472 919 724 961 610 b 494 -14 961 169 758 -14 m 258 458 b 282 329 258 410 267 365 l 588 736 b 494 753 560 747 529 753 b 258 486 351 753 258 649 l 258 458 m 401 208 b 494 192 429 197 460 192 b 731 458 638 192 731 296 l 731 486 b 707 615 731 535 722 579 l 401 208 "},"Õ":{"ha":989,"x_min":0,"x_max":0,"o":"m 494 -14 b 28 472 231 -14 28 169 b 494 958 28 775 231 958 b 961 472 758 958 961 775 b 494 -14 961 169 758 -14 m 199 1000 b 372 1231 199 1110 226 1231 b 492 1190 422 1231 453 1217 l 535 1161 b 603 1132 558 1144 578 1132 b 653 1222 644 1132 653 1165 l 790 1222 b 617 992 790 1113 763 992 b 497 1032 567 992 536 1006 l 454 1061 b 386 1090 431 1078 411 1090 b 336 1000 344 1090 336 1057 l 199 1000 m 258 458 b 494 192 258 296 351 192 b 731 458 638 192 731 296 l 731 486 b 494 753 731 649 638 753 b 258 486 351 753 258 649 l 258 458 "},"Œ":{"ha":1418,"x_min":0,"x_max":0,"o":"m 474 -14 b 28 472 221 -14 28 169 b 474 958 28 775 221 958 b 747 853 586 958 679 921 l 747 944 l 1379 944 l 1379 739 l 956 739 l 956 576 l 1351 576 l 1351 382 l 956 382 l 956 206 l 1379 206 l 1379 0 l 747 0 l 747 92 b 474 -14 679 24 586 -14 m 258 458 b 488 192 258 296 349 192 b 717 458 626 192 717 296 l 717 486 b 488 753 717 649 626 753 b 258 486 349 753 258 649 l 258 458 "},"P":{"ha":792,"x_min":0,"x_max":0,"o":"m 50 944 l 411 944 b 775 617 629 944 775 817 b 411 289 775 417 629 289 l 272 289 l 272 0 l 50 0 m 406 486 b 544 610 497 486 544 536 l 544 624 b 406 747 544 697 497 747 l 272 747 l 272 486 "},"Þ":{"ha":792,"x_min":0,"x_max":0,"o":"m 50 944 l 272 944 l 272 814 l 411 814 b 775 486 629 814 775 686 b 411 158 775 286 629 158 l 272 158 l 272 0 l 50 0 m 406 356 b 544 479 497 356 544 406 l 544 493 b 406 617 544 567 497 617 l 272 617 l 272 356 "},"Q":{"ha":989,"x_min":0,"x_max":0,"o":"m 479 -14 b 28 472 222 -7 28 175 b 494 958 28 775 231 958 b 961 472 758 958 961 775 b 600 -4 961 211 810 39 l 896 -33 l 896 -232 l 479 -187 m 258 458 b 494 192 258 296 351 192 b 731 458 638 192 731 296 l 731 486 b 494 753 731 649 638 753 b 258 486 351 753 258 649 l 258 458 "},"R":{"ha":799,"x_min":0,"x_max":0,"o":"m 50 944 l 410 944 b 767 631 629 944 767 821 b 561 347 767 486 689 389 l 806 0 l 538 0 l 342 324 l 272 324 l 272 0 l 50 0 m 397 508 b 536 621 489 508 536 554 l 536 635 b 397 747 536 701 489 747 l 272 747 l 272 508 "},"S":{"ha":833,"x_min":0,"x_max":0,"o":"m 325 379 b 38 660 140 413 38 501 b 413 958 38 854 192 958 b 806 618 689 958 793 796 l 578 618 b 404 768 575 696 532 768 b 265 678 317 768 265 733 b 379 592 265 635 296 607 l 510 568 b 796 285 696 535 796 443 b 421 -14 796 90 642 -14 b 28 326 144 -14 40 149 l 256 326 b 429 176 257 249 301 176 b 568 265 517 176 568 210 b 454 356 568 308 538 340 l 325 379 "},"Š":{"ha":833,"x_min":0,"x_max":0,"o":"m 325 379 b 38 660 140 413 38 501 b 413 958 38 854 192 958 b 806 618 689 958 793 796 l 578 618 b 404 768 575 696 532 768 b 265 678 317 768 265 733 b 379 592 265 635 296 607 l 510 568 b 796 285 696 535 796 443 b 421 -14 796 90 642 -14 b 28 326 144 -14 40 149 l 256 326 b 429 176 257 249 301 176 b 568 265 517 176 568 210 b 454 356 568 308 538 340 l 325 379 m 340 1229 l 417 1114 l 493 1229 l 675 1229 l 535 993 l 299 993 l 158 1229 "},"ẞ":{"ha":875,"x_min":0,"x_max":0,"o":"m 50 944 l 819 944 l 819 756 l 635 569 b 851 296 754 544 851 453 b 472 0 851 106 710 0 l 347 0 l 347 200 l 460 200 b 626 315 576 200 626 240 b 460 433 626 390 576 433 l 389 433 l 389 561 l 564 744 l 272 744 l 272 0 l 50 0 "},"T":{"ha":778,"x_min":0,"x_max":0,"o":"m 278 736 l 14 736 l 14 944 l 764 944 l 764 736 l 500 736 l 500 0 l 278 0 "},"U":{"ha":872,"x_min":0,"x_max":0,"o":"m 436 -14 b 35 389 174 -14 35 131 l 35 944 l 257 944 l 257 400 b 436 192 257 249 319 192 b 615 400 553 192 615 249 l 615 944 l 838 944 l 838 389 b 436 -14 838 131 699 -14 "},"Ú":{"ha":872,"x_min":0,"x_max":0,"o":"m 436 -14 b 35 389 174 -14 35 131 l 35 944 l 257 944 l 257 400 b 436 192 257 249 319 192 b 615 400 553 192 615 249 l 615 944 l 838 944 l 838 389 b 436 -14 838 131 699 -14 m 422 1229 l 644 1229 l 533 993 l 325 993 "},"Û":{"ha":872,"x_min":0,"x_max":0,"o":"m 436 -14 b 35 389 174 -14 35 131 l 35 944 l 257 944 l 257 400 b 436 192 257 249 319 192 b 615 400 553 192 615 249 l 615 944 l 838 944 l 838 389 b 436 -14 838 131 699 -14 m 318 1229 l 554 1229 l 694 993 l 513 993 l 436 1108 l 360 993 l 178 993 "},"Ü":{"ha":872,"x_min":0,"x_max":0,"o":"m 436 -14 b 35 389 174 -14 35 131 l 35 944 l 257 944 l 257 400 b 436 192 257 249 319 192 b 615 400 553 192 615 249 l 615 944 l 838 944 l 838 389 b 436 -14 838 131 699 -14 m 203 1194 l 406 1194 l 406 997 l 203 997 m 467 1194 l 669 1194 l 669 997 l 467 997 "},"Ù":{"ha":872,"x_min":0,"x_max":0,"o":"m 436 -14 b 35 389 174 -14 35 131 l 35 944 l 257 944 l 257 400 b 436 192 257 249 319 192 b 615 400 553 192 615 249 l 615 944 l 838 944 l 838 389 b 436 -14 838 131 699 -14 m 450 1229 l 547 993 l 339 993 l 228 1229 "},"V":{"ha":933,"x_min":0,"x_max":0,"o":"m 21 944 l 251 944 l 428 283 l 469 117 l 472 117 l 513 283 l 682 944 l 913 944 l 656 0 l 281 0 "},"W":{"ha":1438,"x_min":0,"x_max":0,"o":"m 999 325 l 1026 156 l 1029 156 l 1064 324 l 1199 944 l 1417 944 l 1199 0 l 835 0 l 744 551 l 718 721 l 715 721 l 689 551 l 597 0 l 240 0 l 21 944 l 244 944 l 383 332 l 418 164 l 422 164 l 449 333 l 556 944 l 888 944 "},"Ẃ":{"ha":1438,"x_min":0,"x_max":0,"o":"m 999 325 l 1026 156 l 1029 156 l 1064 324 l 1199 944 l 1417 944 l 1199 0 l 835 0 l 744 551 l 718 721 l 715 721 l 689 551 l 597 0 l 240 0 l 21 944 l 244 944 l 383 332 l 418 164 l 422 164 l 449 333 l 556 944 l 888 944 m 713 1229 l 935 1229 l 824 993 l 615 993 "},"Ŵ":{"ha":1438,"x_min":0,"x_max":0,"o":"m 999 325 l 1026 156 l 1029 156 l 1064 324 l 1199 944 l 1417 944 l 1199 0 l 835 0 l 744 551 l 718 721 l 715 721 l 689 551 l 597 0 l 240 0 l 21 944 l 244 944 l 383 332 l 418 164 l 422 164 l 449 333 l 556 944 l 888 944 m 608 1229 l 844 1229 l 985 993 l 803 993 l 726 1108 l 650 993 l 468 993 "},"Ẅ":{"ha":1438,"x_min":0,"x_max":0,"o":"m 999 325 l 1026 156 l 1029 156 l 1064 324 l 1199 944 l 1417 944 l 1199 0 l 835 0 l 744 551 l 718 721 l 715 721 l 689 551 l 597 0 l 240 0 l 21 944 l 244 944 l 383 332 l 418 164 l 422 164 l 449 333 l 556 944 l 888 944 m 493 1194 l 696 1194 l 696 997 l 493 997 m 757 1194 l 960 1194 l 960 997 l 757 997 "},"Ẁ":{"ha":1438,"x_min":0,"x_max":0,"o":"m 999 325 l 1026 156 l 1029 156 l 1064 324 l 1199 944 l 1417 944 l 1199 0 l 835 0 l 744 551 l 718 721 l 715 721 l 689 551 l 597 0 l 240 0 l 21 944 l 244 944 l 383 332 l 418 164 l 422 164 l 449 333 l 556 944 l 888 944 m 740 1229 l 838 993 l 629 993 l 518 1229 "},"X":{"ha":950,"x_min":0,"x_max":0,"o":"m 21 944 l 279 944 l 397 743 l 479 593 l 482 593 l 561 744 l 669 944 l 929 944 l 644 472 l 929 0 l 671 0 l 553 201 l 471 351 l 468 351 l 389 200 l 281 0 l 21 0 l 306 472 "},"Y":{"ha":890,"x_min":0,"x_max":0,"o":"m 7 944 l 253 944 l 382 644 l 446 486 l 449 486 l 511 646 l 638 944 l 883 944 l 628 389 l 557 389 l 557 0 l 335 0 l 335 389 l 264 389 "},"Ý":{"ha":890,"x_min":0,"x_max":0,"o":"m 7 944 l 253 944 l 382 644 l 446 486 l 449 486 l 511 646 l 638 944 l 883 944 l 628 389 l 557 389 l 557 0 l 335 0 l 335 389 l 264 389 m 432 1229 l 654 1229 l 543 993 l 335 993 "},"Ŷ":{"ha":890,"x_min":0,"x_max":0,"o":"m 7 944 l 253 944 l 382 644 l 446 486 l 449 486 l 511 646 l 638 944 l 883 944 l 628 389 l 557 389 l 557 0 l 335 0 l 335 389 l 264 389 m 328 1229 l 564 1229 l 704 993 l 522 993 l 446 1108 l 369 993 l 188 993 "},"Ÿ":{"ha":890,"x_min":0,"x_max":0,"o":"m 7 944 l 253 944 l 382 644 l 446 486 l 449 486 l 511 646 l 638 944 l 883 944 l 628 389 l 557 389 l 557 0 l 335 0 l 335 389 l 264 389 m 213 1194 l 415 1194 l 415 997 l 213 997 m 476 1194 l 679 1194 l 679 997 l 476 997 "},"Ỳ":{"ha":890,"x_min":0,"x_max":0,"o":"m 7 944 l 253 944 l 382 644 l 446 486 l 449 486 l 511 646 l 638 944 l 883 944 l 628 389 l 557 389 l 557 0 l 335 0 l 335 389 l 264 389 m 460 1229 l 557 993 l 349 993 l 238 1229 "},"Z":{"ha":778,"x_min":0,"x_max":0,"o":"m 42 228 l 488 736 l 35 736 l 35 944 l 736 944 l 736 717 l 290 208 l 750 208 l 750 0 l 42 0 "},"Ž":{"ha":778,"x_min":0,"x_max":0,"o":"m 42 228 l 488 736 l 35 736 l 35 944 l 736 944 l 736 717 l 290 208 l 750 208 l 750 0 l 42 0 m 326 1229 l 403 1114 l 479 1229 l 661 1229 l 521 993 l 285 993 l 144 1229 "},"a":{"ha":729,"x_min":0,"x_max":0,"o":"m 253 -14 b 36 178 107 -14 36 72 b 235 390 36 299 128 363 l 461 449 l 461 451 b 365 543 461 515 425 543 b 264 447 303 543 265 513 l 39 447 b 372 708 56 622 189 708 b 683 424 572 708 683 606 l 683 0 l 468 0 l 468 111 b 253 -14 431 32 358 -14 m 258 207 b 344 139 258 164 293 139 b 461 275 424 139 461 196 l 461 315 l 338 285 b 258 207 282 271 258 242 "},"á":{"ha":729,"x_min":0,"x_max":0,"o":"m 253 -14 b 36 178 107 -14 36 72 b 235 390 36 299 128 363 l 461 449 l 461 451 b 365 543 461 515 425 543 b 264 447 303 543 265 513 l 39 447 b 372 708 56 622 189 708 b 683 424 572 708 683 606 l 683 0 l 468 0 l 468 111 b 253 -14 431 32 358 -14 m 351 979 l 574 979 l 463 743 l 254 743 m 258 207 b 344 139 258 164 293 139 b 461 275 424 139 461 196 l 461 315 l 338 285 b 258 207 282 271 258 242 "},"â":{"ha":729,"x_min":0,"x_max":0,"o":"m 253 -14 b 36 178 107 -14 36 72 b 235 390 36 299 128 363 l 461 449 l 461 451 b 365 543 461 515 425 543 b 264 447 303 543 265 513 l 39 447 b 372 708 56 622 189 708 b 683 424 572 708 683 606 l 683 0 l 468 0 l 468 111 b 253 -14 431 32 358 -14 m 247 979 l 483 979 l 624 743 l 442 743 l 365 858 l 289 743 l 107 743 m 258 207 b 344 139 258 164 293 139 b 461 275 424 139 461 196 l 461 315 l 338 285 b 258 207 282 271 258 242 "},"ä":{"ha":729,"x_min":0,"x_max":0,"o":"m 253 -14 b 36 178 107 -14 36 72 b 235 390 36 299 128 363 l 461 449 l 461 451 b 365 543 461 515 425 543 b 264 447 303 543 265 513 l 39 447 b 372 708 56 622 189 708 b 683 424 572 708 683 606 l 683 0 l 468 0 l 468 111 b 253 -14 431 32 358 -14 m 132 944 l 335 944 l 335 747 l 132 747 m 258 207 b 344 139 258 164 293 139 b 461 275 424 139 461 196 l 461 315 l 338 285 b 258 207 282 271 258 242 m 396 944 l 599 944 l 599 747 l 396 747 "},"à":{"ha":729,"x_min":0,"x_max":0,"o":"m 253 -14 b 36 178 107 -14 36 72 b 235 390 36 299 128 363 l 461 449 l 461 451 b 365 543 461 515 425 543 b 264 447 303 543 265 513 l 39 447 b 372 708 56 622 189 708 b 683 424 572 708 683 606 l 683 0 l 468 0 l 468 111 b 253 -14 431 32 358 -14 m 379 979 l 476 743 l 268 743 l 157 979 m 258 207 b 344 139 258 164 293 139 b 461 275 424 139 461 196 l 461 315 l 338 285 b 258 207 282 271 258 242 "},"å":{"ha":729,"x_min":0,"x_max":0,"o":"m 253 -14 b 36 178 107 -14 36 72 b 235 390 36 299 128 363 l 461 449 l 461 451 b 365 543 461 515 425 543 b 264 447 303 543 265 513 l 39 447 b 372 708 56 622 189 708 b 683 424 572 708 683 606 l 683 0 l 468 0 l 468 111 b 253 -14 431 32 358 -14 m 183 910 b 365 1083 183 1010 261 1083 b 547 910 469 1083 547 1010 b 365 736 547 810 469 736 b 183 910 261 736 183 810 m 258 207 b 344 139 258 164 293 139 b 461 275 424 139 461 196 l 461 315 l 338 285 b 258 207 282 271 258 242 m 303 910 b 365 847 303 872 331 847 b 428 910 400 847 428 872 b 365 972 428 947 400 972 b 303 910 331 972 303 947 "},"ã":{"ha":729,"x_min":0,"x_max":0,"o":"m 253 -14 b 36 178 107 -14 36 72 b 235 390 36 299 128 363 l 461 449 l 461 451 b 365 543 461 515 425 543 b 264 447 303 543 265 513 l 39 447 b 372 708 56 622 189 708 b 683 424 572 708 683 606 l 683 0 l 468 0 l 468 111 b 253 -14 431 32 358 -14 m 69 750 b 243 981 69 860 97 981 b 363 940 293 981 324 967 l 406 911 b 474 882 429 894 449 882 b 524 972 515 882 524 915 l 661 972 b 488 742 661 863 633 742 b 368 782 438 742 407 756 l 325 811 b 257 840 301 828 282 840 b 207 750 215 840 207 807 l 69 750 m 258 207 b 344 139 258 164 293 139 b 461 275 424 139 461 196 l 461 315 l 338 285 b 258 207 282 271 258 242 "},"æ":{"ha":1196,"x_min":0,"x_max":0,"o":"m 831 -14 b 558 104 711 -14 618 26 b 299 -14 519 38 443 -14 b 36 188 121 -14 36 65 b 235 388 36 313 126 368 l 461 429 l 461 451 b 365 543 461 515 425 543 b 264 447 303 543 265 513 l 39 447 b 358 708 56 622 175 708 b 585 624 465 708 539 679 b 819 708 642 679 722 708 b 1151 347 1024 708 1151 579 l 1151 297 l 678 297 l 678 285 b 817 149 678 214 726 149 b 935 219 879 149 921 179 l 1143 219 b 831 -14 1119 79 1011 -14 m 258 207 b 344 139 258 164 293 139 b 461 275 424 139 461 196 l 461 294 l 338 274 b 258 207 281 264 258 242 m 926 431 b 806 546 926 494 885 546 b 678 431 731 546 683 500 "},"b":{"ha":793,"x_min":0,"x_max":0,"o":"m 481 -14 b 264 114 385 -14 306 36 l 264 0 l 49 0 l 49 972 l 271 972 l 271 592 b 481 708 314 664 389 708 b 760 347 625 708 760 597 b 481 -14 760 97 625 -14 m 271 322 b 399 149 271 213 319 149 b 529 336 481 149 529 215 l 529 361 b 399 535 529 472 481 535 b 271 375 319 535 271 475 l 271 322 "},"c":{"ha":764,"x_min":0,"x_max":0,"o":"m 396 -14 b 33 347 189 -14 33 111 b 396 708 33 583 189 708 b 736 431 615 708 722 568 l 506 431 b 392 536 500 503 453 536 b 264 361 310 536 264 475 l 264 333 b 392 158 264 219 310 158 b 506 264 453 158 500 192 l 736 264 b 396 -14 722 126 615 -14 "},"ç":{"ha":764,"x_min":0,"x_max":0,"o":"m 33 347 b 396 708 33 583 189 708 b 736 431 615 708 722 568 l 506 431 b 392 536 500 503 453 536 b 264 361 310 536 264 475 l 264 333 b 392 158 264 219 310 158 b 506 264 453 158 500 192 l 736 264 b 442 -11 724 136 631 6 l 413 -54 b 564 -185 500 -60 564 -97 b 383 -319 564 -282 488 -319 l 258 -319 l 258 -203 l 357 -203 b 413 -171 385 -203 413 -199 b 357 -140 413 -143 385 -140 l 258 -140 l 258 -53 l 292 -3 b 33 347 139 33 33 153 "},"d":{"ha":793,"x_min":0,"x_max":0,"o":"m 313 -14 b 33 347 168 -14 33 97 b 313 708 33 597 168 708 b 522 592 404 708 479 664 l 522 972 l 744 972 l 744 0 l 529 0 l 529 114 b 313 -14 488 36 408 -14 m 264 336 b 394 149 264 215 313 149 b 522 322 474 149 522 213 l 522 375 b 394 535 522 475 474 535 b 264 361 313 535 264 472 l 264 336 "},"ð":{"ha":767,"x_min":0,"x_max":0,"o":"m 378 -14 b 33 344 158 -14 33 138 b 317 678 33 549 158 678 b 468 622 378 678 429 658 b 375 763 446 669 413 715 l 147 694 l 147 819 l 286 861 b 154 986 244 903 199 946 l 404 986 b 472 917 428 964 450 940 l 658 972 l 658 847 l 560 818 b 733 389 661 692 733 553 l 733 361 b 378 -14 733 124 588 -14 m 258 342 b 385 172 258 233 303 172 b 508 343 479 172 508 254 b 383 511 508 443 469 511 b 258 342 297 511 258 443 "},"e":{"ha":768,"x_min":0,"x_max":0,"o":"m 403 -14 b 33 347 193 -14 33 111 b 392 708 33 583 189 708 b 738 347 596 708 738 579 l 738 297 l 264 297 l 264 285 b 403 149 264 214 313 149 b 521 219 465 149 507 179 l 729 219 b 403 -14 706 79 583 -14 m 513 431 b 392 546 513 494 471 546 b 264 431 317 546 269 500 "},"é":{"ha":768,"x_min":0,"x_max":0,"o":"m 403 -14 b 33 347 193 -14 33 111 b 392 708 33 583 189 708 b 738 347 596 708 738 579 l 738 297 l 264 297 l 264 285 b 403 149 264 214 313 149 b 521 219 465 149 507 179 l 729 219 b 403 -14 706 79 583 -14 m 513 431 b 392 546 513 494 471 546 b 264 431 317 546 269 500 m 378 979 l 600 979 l 489 743 l 281 743 "},"ê":{"ha":768,"x_min":0,"x_max":0,"o":"m 403 -14 b 33 347 193 -14 33 111 b 392 708 33 583 189 708 b 738 347 596 708 738 579 l 738 297 l 264 297 l 264 285 b 403 149 264 214 313 149 b 521 219 465 149 507 179 l 729 219 b 403 -14 706 79 583 -14 m 274 979 l 510 979 l 650 743 l 468 743 l 392 858 l 315 743 l 133 743 m 513 431 b 392 546 513 494 471 546 b 264 431 317 546 269 500 "},"ë":{"ha":768,"x_min":0,"x_max":0,"o":"m 403 -14 b 33 347 193 -14 33 111 b 392 708 33 583 189 708 b 738 347 596 708 738 579 l 738 297 l 264 297 l 264 285 b 403 149 264 214 313 149 b 521 219 465 149 507 179 l 729 219 b 403 -14 706 79 583 -14 m 158 944 l 361 944 l 361 747 l 158 747 m 513 431 b 392 546 513 494 471 546 b 264 431 317 546 269 500 m 422 944 l 625 944 l 625 747 l 422 747 "},"è":{"ha":768,"x_min":0,"x_max":0,"o":"m 403 -14 b 33 347 193 -14 33 111 b 392 708 33 583 189 708 b 738 347 596 708 738 579 l 738 297 l 264 297 l 264 285 b 403 149 264 214 313 149 b 521 219 465 149 507 179 l 729 219 b 403 -14 706 79 583 -14 m 406 979 l 503 743 l 294 743 l 183 979 m 513 431 b 392 546 513 494 471 546 b 264 431 317 546 269 500 "},"f":{"ha":428,"x_min":0,"x_max":0,"o":"m 88 786 b 267 972 88 903 139 972 l 428 972 l 428 800 l 364 800 b 310 749 321 800 310 789 l 310 694 l 417 694 l 417 508 l 310 508 l 310 0 l 88 0 l 88 508 l 14 508 l 14 694 l 88 694 l 88 786 "},"g":{"ha":793,"x_min":0,"x_max":0,"o":"m 389 -286 b 50 -36 179 -286 69 -186 l 275 -36 b 394 -128 279 -92 318 -128 b 522 19 488 -128 522 -74 l 522 122 b 313 14 479 56 404 14 b 33 361 168 14 33 121 b 313 708 33 601 168 708 b 529 589 408 708 488 661 l 529 694 l 744 694 l 744 47 b 389 -286 744 -172 614 -286 m 264 347 b 394 188 264 244 313 188 b 522 333 474 188 522 242 l 522 386 b 394 546 522 488 474 546 b 264 372 313 546 264 485 l 264 347 "},"h":{"ha":764,"x_min":0,"x_max":0,"o":"m 49 972 l 271 972 l 271 575 b 486 708 310 649 375 708 b 718 447 613 708 718 631 l 718 0 l 496 0 l 496 417 b 389 526 496 488 458 526 b 271 382 315 526 271 483 l 271 0 l 49 0 "},"i":{"ha":319,"x_min":0,"x_max":0,"o":"m 49 694 l 271 694 l 271 0 l 49 0 m 274 764 l 274 972 l 46 972 l 46 764 "},"í":{"ha":319,"x_min":0,"x_max":0,"o":"m 49 694 l 271 694 l 271 0 l 49 0 m 146 979 l 368 979 l 257 743 l 49 743 "},"î":{"ha":319,"x_min":0,"x_max":0,"o":"m 49 694 l 271 694 l 271 0 l 49 0 m 42 979 l 278 979 l 418 743 l 236 743 l 160 858 l 83 743 l -99 743 "},"ï":{"ha":458,"x_min":0,"x_max":0,"o":"m 118 694 l 340 694 l 340 0 l 118 0 m -4 944 l 199 944 l 199 747 l -4 747 m 260 944 l 463 944 l 463 747 l 260 747 "},"ì":{"ha":319,"x_min":0,"x_max":0,"o":"m 49 694 l 271 694 l 271 0 l 49 0 m 174 979 l 271 743 l 63 743 l -49 979 "},"ĳ":{"ha":639,"x_min":0,"x_max":0,"o":"m 49 694 l 271 694 l 271 0 l 49 0 m 274 764 l 274 972 l 46 972 l 46 764 m 299 -86 l 368 -86 l 368 694 l 590 694 l 590 -278 l 299 -278 m 593 764 l 593 972 l 365 972 l 365 764 "},"j":{"ha":319,"x_min":0,"x_max":0,"o":"m -21 -86 l 49 -86 l 49 694 l 271 694 l 271 -278 l -21 -278 m 274 764 l 274 972 l 46 972 l 46 764 "},"ȷ":{"ha":319,"x_min":0,"x_max":0,"o":"m -21 -86 l 49 -86 l 49 694 l 271 694 l 271 -278 l -21 -278 "},"k":{"ha":756,"x_min":0,"x_max":0,"o":"m 271 290 l 271 0 l 49 0 l 49 972 l 271 972 l 271 421 l 471 694 l 744 694 l 474 363 l 751 0 l 471 0 "},"l":{"ha":333,"x_min":0,"x_max":0,"o":"m 49 972 l 271 972 l 271 178 l 326 178 l 326 0 l 49 0 "},"m":{"ha":1200,"x_min":0,"x_max":0,"o":"m 49 694 l 264 694 l 264 561 b 483 708 301 640 367 708 b 697 557 579 708 664 663 b 925 708 736 638 807 708 b 1154 447 1050 708 1154 631 l 1154 0 l 932 0 l 932 417 b 828 526 932 488 896 526 b 713 382 756 526 713 483 l 713 0 l 490 0 l 490 417 b 386 526 490 488 454 526 b 271 382 314 526 271 483 l 271 0 l 49 0 "},"n":{"ha":764,"x_min":0,"x_max":0,"o":"m 49 694 l 264 694 l 264 561 b 486 708 303 640 369 708 b 718 447 613 708 718 631 l 718 0 l 496 0 l 496 417 b 389 526 496 488 458 526 b 271 382 315 526 271 483 l 271 0 l 49 0 "},"ñ":{"ha":764,"x_min":0,"x_max":0,"o":"m 49 694 l 264 694 l 264 561 b 486 708 303 640 369 708 b 718 447 613 708 718 631 l 718 0 l 496 0 l 496 417 b 389 526 496 488 458 526 b 271 382 315 526 271 483 l 271 0 l 49 0 m 86 750 b 260 981 86 860 114 981 b 379 940 310 981 340 967 l 422 911 b 490 882 446 894 465 882 b 540 972 532 882 540 915 l 678 972 b 504 742 678 863 650 742 b 385 782 454 742 424 756 l 342 811 b 274 840 318 828 299 840 b 224 750 232 840 224 807 l 86 750 "},"o":{"ha":792,"x_min":0,"x_max":0,"o":"m 396 -14 b 33 347 189 -14 33 111 b 396 708 33 583 189 708 b 758 347 603 708 758 583 b 396 -14 758 111 603 -14 m 264 333 b 396 158 264 219 315 158 b 528 333 476 158 528 219 l 528 361 b 396 536 528 475 476 536 b 264 361 315 536 264 475 l 264 333 "},"ó":{"ha":792,"x_min":0,"x_max":0,"o":"m 396 -14 b 33 347 189 -14 33 111 b 396 708 33 583 189 708 b 758 347 603 708 758 583 b 396 -14 758 111 603 -14 m 264 333 b 396 158 264 219 315 158 b 528 333 476 158 528 219 l 528 361 b 396 536 528 475 476 536 b 264 361 315 536 264 475 l 264 333 m 382 979 l 604 979 l 493 743 l 285 743 "},"ô":{"ha":792,"x_min":0,"x_max":0,"o":"m 396 -14 b 33 347 189 -14 33 111 b 396 708 33 583 189 708 b 758 347 603 708 758 583 b 396 -14 758 111 603 -14 m 278 979 l 514 979 l 654 743 l 472 743 l 396 858 l 319 743 l 138 743 m 264 333 b 396 158 264 219 315 158 b 528 333 476 158 528 219 l 528 361 b 396 536 528 475 476 536 b 264 361 315 536 264 475 l 264 333 "},"ö":{"ha":792,"x_min":0,"x_max":0,"o":"m 396 -14 b 33 347 189 -14 33 111 b 396 708 33 583 189 708 b 758 347 603 708 758 583 b 396 -14 758 111 603 -14 m 163 944 l 365 944 l 365 747 l 163 747 m 264 333 b 396 158 264 219 315 158 b 528 333 476 158 528 219 l 528 361 b 396 536 528 475 476 536 b 264 361 315 536 264 475 l 264 333 m 426 944 l 629 944 l 629 747 l 426 747 "},"ò":{"ha":792,"x_min":0,"x_max":0,"o":"m 396 -14 b 33 347 189 -14 33 111 b 396 708 33 583 189 708 b 758 347 603 708 758 583 b 396 -14 758 111 603 -14 m 410 979 l 507 743 l 299 743 l 188 979 m 264 333 b 396 158 264 219 315 158 b 528 333 476 158 528 219 l 528 361 b 396 536 528 475 476 536 b 264 361 315 536 264 475 l 264 333 "},"ø":{"ha":792,"x_min":0,"x_max":0,"o":"m 396 -14 b 211 26 328 -14 264 0 l 147 -56 l 21 -56 l 129 85 b 33 347 69 146 33 233 b 396 708 33 583 189 708 b 581 668 464 708 528 694 l 644 750 l 771 750 l 663 610 b 758 347 722 549 758 461 b 396 -14 758 111 603 -14 m 264 333 b 271 267 264 308 267 288 l 464 517 b 396 536 444 529 422 536 b 264 361 315 536 264 475 l 264 333 m 328 178 b 396 158 347 165 369 158 b 528 333 476 158 528 219 l 528 361 b 521 428 528 386 525 407 l 328 178 "},"õ":{"ha":792,"x_min":0,"x_max":0,"o":"m 396 -14 b 33 347 189 -14 33 111 b 396 708 33 583 189 708 b 758 347 603 708 758 583 b 396 -14 758 111 603 -14 m 100 750 b 274 981 100 860 128 981 b 393 940 324 981 354 967 l 436 911 b 504 882 460 894 479 882 b 554 972 546 882 554 915 l 692 972 b 518 742 692 863 664 742 b 399 782 468 742 438 756 l 356 811 b 288 840 332 828 313 840 b 238 750 246 840 238 807 l 100 750 m 264 333 b 396 158 264 219 315 158 b 528 333 476 158 528 219 l 528 361 b 396 536 528 475 476 536 b 264 361 315 536 264 475 l 264 333 "},"œ":{"ha":1268,"x_min":0,"x_max":0,"o":"m 382 -14 b 33 347 175 -14 33 111 b 382 708 33 583 175 708 b 639 603 493 708 581 672 b 892 708 696 672 783 708 b 1224 347 1096 708 1224 579 l 1224 297 l 750 297 l 750 285 b 889 149 750 214 799 149 b 1007 219 951 149 993 179 l 1215 219 b 903 -14 1192 79 1083 -14 b 640 93 790 -14 700 22 b 382 -14 582 22 493 -14 m 264 333 b 396 158 264 219 315 158 b 528 333 476 158 528 219 l 528 361 b 396 536 528 475 476 536 b 264 361 315 536 264 475 l 264 333 m 999 431 b 878 546 999 494 957 546 b 750 431 803 546 756 500 "},"p":{"ha":793,"x_min":0,"x_max":0,"o":"m 49 694 l 264 694 l 264 581 b 481 708 306 658 385 708 b 760 347 625 708 760 597 b 481 -14 760 97 625 -14 b 271 103 389 -14 314 31 l 271 -278 l 49 -278 m 271 319 b 399 160 271 219 319 160 b 529 333 481 160 529 222 l 529 358 b 399 546 529 479 481 546 b 271 372 319 546 271 482 l 271 319 "},"þ":{"ha":793,"x_min":0,"x_max":0,"o":"m 49 972 l 271 972 l 271 592 b 481 708 314 664 389 708 b 760 347 625 708 760 597 b 481 -14 760 97 625 -14 b 271 103 389 -14 314 31 l 271 -278 l 49 -278 m 271 319 b 399 160 271 219 319 160 b 529 333 481 160 529 222 l 529 358 b 399 546 529 479 481 546 b 271 372 319 546 271 482 l 271 319 "},"q":{"ha":793,"x_min":0,"x_max":0,"o":"m 522 -278 l 522 103 b 313 -14 479 31 404 -14 b 33 347 168 -14 33 97 b 313 708 33 597 168 708 b 529 581 408 708 488 658 l 529 694 l 744 694 l 744 -278 m 264 333 b 394 160 264 222 313 160 b 522 319 474 160 522 219 l 522 372 b 394 546 522 482 474 546 b 264 358 313 546 264 479 l 264 333 "},"r":{"ha":518,"x_min":0,"x_max":0,"o":"m 49 694 l 264 694 l 264 550 b 464 701 311 660 379 701 l 501 701 l 501 479 l 394 479 b 271 347 313 479 271 456 l 271 0 l 49 0 "},"s":{"ha":715,"x_min":0,"x_max":0,"o":"m 264 269 b 43 482 147 290 43 347 b 351 708 43 622 158 708 b 676 465 583 708 671 583 l 454 465 b 350 550 454 518 419 550 b 265 499 294 550 265 529 b 325 447 265 471 289 454 l 449 425 b 669 213 565 404 669 347 b 361 -14 669 72 554 -14 b 36 229 129 -14 42 111 l 258 229 b 364 144 258 176 294 144 b 447 196 419 144 447 165 b 388 247 447 224 424 240 l 264 269 "},"š":{"ha":715,"x_min":0,"x_max":0,"o":"m 264 269 b 43 482 147 290 43 347 b 351 708 43 622 158 708 b 676 465 583 708 671 583 l 454 465 b 350 550 454 518 419 550 b 265 499 294 550 265 529 b 325 447 265 471 289 454 l 449 425 b 669 213 565 404 669 347 b 361 -14 669 72 554 -14 b 36 229 129 -14 42 111 l 258 229 b 364 144 258 176 294 144 b 447 196 419 144 447 165 b 388 247 447 224 424 240 l 264 269 m 281 979 l 357 864 l 433 979 l 615 979 l 475 743 l 239 743 l 99 979 "},"ß":{"ha":813,"x_min":0,"x_max":0,"o":"m 49 583 b 419 979 49 819 164 979 b 761 713 622 979 761 881 b 597 500 761 599 699 529 b 789 264 715 471 789 392 b 474 0 789 93 658 0 l 356 0 l 356 197 l 436 197 b 564 306 521 197 564 239 b 436 411 564 374 521 411 l 383 411 l 383 589 l 436 589 b 536 672 500 589 536 618 b 413 781 536 729 497 781 b 271 600 317 781 271 715 l 271 0 l 49 0 l 49 583 "},"t":{"ha":443,"x_min":0,"x_max":0,"o":"m 274 0 b 88 193 136 0 88 68 l 88 508 l 14 508 l 14 694 l 88 694 l 88 847 l 310 889 l 310 694 l 422 694 l 422 508 l 310 508 l 310 238 b 364 186 310 194 319 186 l 422 186 l 422 0 l 274 0 "},"u":{"ha":758,"x_min":0,"x_max":0,"o":"m 274 -14 b 46 242 150 -14 46 63 l 46 694 l 268 694 l 268 272 b 372 168 268 206 304 168 b 488 313 444 168 488 211 l 488 694 l 710 694 l 710 0 l 494 0 l 494 133 b 274 -14 456 54 390 -14 "},"ú":{"ha":758,"x_min":0,"x_max":0,"o":"m 274 -14 b 46 242 150 -14 46 63 l 46 694 l 268 694 l 268 272 b 372 168 268 206 304 168 b 488 313 444 168 488 211 l 488 694 l 710 694 l 710 0 l 494 0 l 494 133 b 274 -14 456 54 390 -14 m 365 979 l 588 979 l 476 743 l 268 743 "},"û":{"ha":758,"x_min":0,"x_max":0,"o":"m 274 -14 b 46 242 150 -14 46 63 l 46 694 l 268 694 l 268 272 b 372 168 268 206 304 168 b 488 313 444 168 488 211 l 488 694 l 710 694 l 710 0 l 494 0 l 494 133 b 274 -14 456 54 390 -14 m 261 979 l 497 979 l 638 743 l 456 743 l 379 858 l 303 743 l 121 743 "},"ü":{"ha":758,"x_min":0,"x_max":0,"o":"m 274 -14 b 46 242 150 -14 46 63 l 46 694 l 268 694 l 268 272 b 372 168 268 206 304 168 b 488 313 444 168 488 211 l 488 694 l 710 694 l 710 0 l 494 0 l 494 133 b 274 -14 456 54 390 -14 m 146 944 l 349 944 l 349 747 l 146 747 m 410 944 l 613 944 l 613 747 l 410 747 "},"ù":{"ha":758,"x_min":0,"x_max":0,"o":"m 274 -14 b 46 242 150 -14 46 63 l 46 694 l 268 694 l 268 272 b 372 168 268 206 304 168 b 488 313 444 168 488 211 l 488 694 l 710 694 l 710 0 l 494 0 l 494 133 b 274 -14 456 54 390 -14 m 393 979 l 490 743 l 282 743 l 171 979 "},"v":{"ha":771,"x_min":0,"x_max":0,"o":"m 10 694 l 242 694 l 347 275 l 386 108 l 389 108 l 428 275 l 532 694 l 761 694 l 565 0 l 206 0 "},"w":{"ha":1169,"x_min":0,"x_max":0,"o":"m 799 319 l 831 150 l 833 150 l 865 319 l 940 694 l 1160 694 l 999 0 l 661 0 l 607 289 l 578 458 l 575 458 l 544 289 l 486 0 l 171 0 l 10 694 l 238 694 l 307 319 l 336 150 l 339 150 l 371 319 l 449 694 l 724 694 "},"ẃ":{"ha":1169,"x_min":0,"x_max":0,"o":"m 799 319 l 831 150 l 833 150 l 865 319 l 940 694 l 1160 694 l 999 0 l 661 0 l 607 289 l 578 458 l 575 458 l 544 289 l 486 0 l 171 0 l 10 694 l 238 694 l 307 319 l 336 150 l 339 150 l 371 319 l 449 694 l 724 694 m 578 979 l 800 979 l 689 743 l 481 743 "},"ŵ":{"ha":1169,"x_min":0,"x_max":0,"o":"m 799 319 l 831 150 l 833 150 l 865 319 l 940 694 l 1160 694 l 999 0 l 661 0 l 607 289 l 578 458 l 575 458 l 544 289 l 486 0 l 171 0 l 10 694 l 238 694 l 307 319 l 336 150 l 339 150 l 371 319 l 449 694 l 724 694 m 474 979 l 710 979 l 850 743 l 668 743 l 592 858 l 515 743 l 333 743 "},"ẅ":{"ha":1169,"x_min":0,"x_max":0,"o":"m 799 319 l 831 150 l 833 150 l 865 319 l 940 694 l 1160 694 l 999 0 l 661 0 l 607 289 l 578 458 l 575 458 l 544 289 l 486 0 l 171 0 l 10 694 l 238 694 l 307 319 l 336 150 l 339 150 l 371 319 l 449 694 l 724 694 m 358 944 l 561 944 l 561 747 l 358 747 m 622 944 l 825 944 l 825 747 l 622 747 "},"ẁ":{"ha":1169,"x_min":0,"x_max":0,"o":"m 799 319 l 831 150 l 833 150 l 865 319 l 940 694 l 1160 694 l 999 0 l 661 0 l 607 289 l 578 458 l 575 458 l 544 289 l 486 0 l 171 0 l 10 694 l 238 694 l 307 319 l 336 150 l 339 150 l 371 319 l 449 694 l 724 694 m 606 979 l 703 743 l 494 743 l 383 979 "},"x":{"ha":763,"x_min":0,"x_max":0,"o":"m 208 347 l 11 694 l 267 694 l 310 608 l 382 454 l 385 454 l 457 610 l 499 694 l 751 694 l 554 347 l 751 0 l 496 0 l 453 86 l 381 240 l 378 240 l 306 85 l 264 0 l 11 0 "},"y":{"ha":788,"x_min":0,"x_max":0,"o":"m 357 14 l 226 14 l 17 694 l 249 694 l 354 329 l 400 164 l 403 164 l 446 331 l 549 694 l 778 694 l 500 -278 l 275 -278 "},"ý":{"ha":788,"x_min":0,"x_max":0,"o":"m 357 14 l 226 14 l 17 694 l 249 694 l 354 329 l 400 164 l 403 164 l 446 331 l 549 694 l 778 694 l 500 -278 l 275 -278 m 388 979 l 610 979 l 499 743 l 290 743 "},"ŷ":{"ha":788,"x_min":0,"x_max":0,"o":"m 357 14 l 226 14 l 17 694 l 249 694 l 354 329 l 400 164 l 403 164 l 446 331 l 549 694 l 778 694 l 500 -278 l 275 -278 m 283 979 l 519 979 l 660 743 l 478 743 l 401 858 l 325 743 l 143 743 "},"ÿ":{"ha":788,"x_min":0,"x_max":0,"o":"m 357 14 l 226 14 l 17 694 l 249 694 l 354 329 l 400 164 l 403 164 l 446 331 l 549 694 l 778 694 l 500 -278 l 275 -278 m 168 944 l 371 944 l 371 747 l 168 747 m 432 944 l 635 944 l 635 747 l 432 747 "},"ỳ":{"ha":788,"x_min":0,"x_max":0,"o":"m 357 14 l 226 14 l 17 694 l 249 694 l 354 329 l 400 164 l 403 164 l 446 331 l 549 694 l 778 694 l 500 -278 l 275 -278 m 415 979 l 513 743 l 304 743 l 193 979 "},"z":{"ha":642,"x_min":0,"x_max":0,"o":"m 360 508 l 39 508 l 39 694 l 604 694 l 604 489 l 283 186 l 611 186 l 611 0 l 39 0 l 39 206 "},"ž":{"ha":642,"x_min":0,"x_max":0,"o":"m 360 508 l 39 508 l 39 694 l 604 694 l 604 489 l 283 186 l 611 186 l 611 0 l 39 0 l 39 206 m 246 979 l 322 864 l 399 979 l 581 979 l 440 743 l 204 743 l 64 979 "},"ª":{"ha":729,"x_min":0,"x_max":0,"o":"m 253 -14 b 36 178 107 -14 36 72 b 235 390 36 299 128 363 l 461 449 l 461 451 b 365 543 461 515 425 543 b 264 447 303 543 265 513 l 39 447 b 372 708 56 622 189 708 b 683 424 572 708 683 606 l 683 0 l 468 0 l 468 111 b 253 -14 431 32 358 -14 m 258 207 b 344 139 258 164 293 139 b 461 275 424 139 461 196 l 461 315 l 338 285 b 258 207 282 271 258 242 "},"º":{"ha":792,"x_min":0,"x_max":0,"o":"m 396 -14 b 33 347 189 -14 33 111 b 396 708 33 583 189 708 b 758 347 603 708 758 583 b 396 -14 758 111 603 -14 m 264 333 b 396 158 264 219 315 158 b 528 333 476 158 528 219 l 528 361 b 396 536 528 475 476 536 b 264 361 315 536 264 475 l 264 333 "},"Ω":{"ha":989,"x_min":0,"x_max":0,"o":"m 28 200 l 210 200 b 35 528 106 264 35 375 b 494 958 35 797 235 958 b 954 528 754 958 954 797 b 779 200 954 375 883 264 l 961 200 l 961 0 l 529 0 l 529 206 b 731 465 656 213 731 322 l 731 493 b 494 753 731 658 638 753 b 258 493 351 753 258 658 l 258 465 b 460 206 258 322 333 213 l 460 0 l 28 0 "},"μ":{"ha":761,"x_min":0,"x_max":0,"o":"m 49 694 l 271 694 l 271 279 b 375 175 271 213 307 175 b 490 319 447 175 490 218 l 490 694 l 713 694 l 713 0 l 497 0 l 497 135 b 297 0 461 63 400 0 b 271 1 289 0 279 0 l 271 -278 l 49 -278 "},"π":{"ha":944,"x_min":0,"x_max":0,"o":"m 735 0 b 563 179 607 0 563 63 l 563 508 l 368 508 l 368 0 l 146 0 l 146 508 l 21 508 l 21 694 l 924 694 l 924 508 l 785 508 l 785 224 b 825 186 785 192 792 186 l 883 186 l 883 0 l 735 0 "},"½":{"ha":833,"x_min":0,"x_max":0,"o":""},"¼":{"ha":833,"x_min":0,"x_max":0,"o":""},"¾":{"ha":833,"x_min":0,"x_max":0,"o":""},"¹":{"ha":778,"x_min":0,"x_max":0,"o":"m 69 208 l 306 208 l 306 700 l 69 571 l 69 808 l 319 944 l 528 944 l 528 208 l 736 208 l 736 0 l 69 0 "},"²":{"ha":778,"x_min":0,"x_max":0,"o":"m 46 611 b 394 958 51 838 194 958 b 732 661 585 958 732 850 b 482 292 732 510 639 419 l 379 208 l 729 208 l 729 0 l 63 0 l 63 204 l 365 463 b 507 653 458 542 507 583 b 392 758 507 722 458 758 b 271 611 325 758 269 719 l 46 611 "},"³":{"ha":778,"x_min":0,"x_max":0,"o":"m 72 944 l 714 944 l 714 756 l 511 586 b 746 300 638 567 746 464 b 394 -14 746 114 604 -14 b 46 333 199 -14 49 100 l 271 333 b 397 186 271 225 328 186 b 521 313 471 186 521 229 b 354 447 521 396 471 447 l 242 447 l 242 575 l 438 736 l 72 736 "}," ":{"ha":1389,"x_min":0,"x_max":0,"o":""}," ":{"ha":694,"x_min":0,"x_max":0,"o":""}," ":{"ha":778,"x_min":0,"x_max":0,"o":""}," ":{"ha":199,"x_min":0,"x_max":0,"o":""}," ":{"ha":222,"x_min":0,"x_max":0,"o":""}," ":{"ha":278,"x_min":0,"x_max":0,"o":""},".":{"ha":300,"x_min":0,"x_max":0,"o":"m 28 239 l 272 239 l 272 0 l 28 0 "},",":{"ha":300,"x_min":0,"x_max":0,"o":"m 28 239 l 272 239 l 272 0 l 196 -215 l 28 -215 l 126 0 l 28 0 "},":":{"ha":300,"x_min":0,"x_max":0,"o":"m 28 694 l 272 694 l 272 456 l 28 456 m 28 239 l 272 239 l 272 0 l 28 0 "},";":{"ha":300,"x_min":0,"x_max":0,"o":"m 28 239 l 272 239 l 272 0 l 196 -215 l 28 -215 l 126 0 l 28 0 m 28 694 l 272 694 l 272 456 l 28 456 "},"…":{"ha":900,"x_min":0,"x_max":0,"o":"m 628 239 l 872 239 l 872 0 l 628 0 m 28 239 l 272 239 l 272 0 l 28 0 m 328 239 l 572 239 l 572 0 l 328 0 "},"!":{"ha":300,"x_min":0,"x_max":0,"o":"m 28 222 l 272 222 l 272 0 l 28 0 m 36 944 l 264 944 l 264 285 l 36 285 "},"¡":{"ha":300,"x_min":0,"x_max":0,"o":"m 272 472 l 28 472 l 28 694 l 272 694 m 36 410 l 264 410 l 264 -250 l 36 -250 "},"?":{"ha":714,"x_min":0,"x_max":0,"o":"m 235 222 l 479 222 l 479 0 l 235 0 m 17 625 b 364 958 29 847 169 958 b 689 671 551 958 689 853 b 450 353 689 529 617 429 l 235 254 l 235 481 l 343 529 b 464 665 431 568 464 610 b 360 758 464 726 422 758 b 242 625 300 758 247 729 l 17 625 "},"¿":{"ha":672,"x_min":0,"x_max":0,"o":"m 471 472 l 226 472 l 226 694 l 471 694 m 17 24 b 256 342 17 165 89 265 l 471 440 l 471 214 l 363 165 b 242 29 275 126 242 85 b 346 -64 242 -32 283 -64 b 464 69 406 -64 458 -35 l 689 69 b 342 -264 676 -153 536 -264 b 17 24 154 -264 17 -158 "},"·":{"ha":300,"x_min":0,"x_max":0,"o":"m 28 600 l 272 600 l 272 361 l 28 361 "},"•":{"ha":519,"x_min":0,"x_max":0,"o":"m 69 646 l 450 646 l 450 271 l 69 271 "},"*":{"ha":739,"x_min":0,"x_max":0,"o":"m 475 972 l 467 861 l 456 789 l 513 833 l 606 897 l 711 714 l 610 665 l 543 639 l 611 613 l 711 564 l 606 381 l 514 444 l 456 490 l 467 417 l 475 306 l 264 306 l 272 417 l 283 489 l 225 443 l 133 381 l 28 564 l 128 611 l 199 639 l 129 667 l 28 714 l 133 897 l 226 835 l 283 789 l 272 861 l 264 972 "},"#":{"ha":964,"x_min":0,"x_max":0,"o":"m 142 201 l 21 201 l 21 388 l 185 388 l 229 560 l 90 560 l 90 746 l 272 746 l 324 944 l 521 944 l 469 746 l 619 746 l 671 944 l 868 944 l 817 746 l 943 746 l 943 560 l 774 560 l 729 388 l 881 388 l 881 201 l 686 201 l 633 0 l 436 0 l 489 201 l 339 201 l 286 0 l 89 0 m 532 388 l 576 560 l 426 560 l 382 388 "},"/":{"ha":708,"x_min":0,"x_max":0,"o":"m 447 972 l 701 972 l 261 -42 l 7 -42 "},"\\":{"ha":708,"x_min":0,"x_max":0,"o":"m 447 -42 l 7 972 l 261 972 l 701 -42 "},"-":{"ha":583,"x_min":0,"x_max":0,"o":"m 42 535 l 542 535 l 542 326 l 42 326 "},"­":{"ha":583,"x_min":0,"x_max":0,"o":"m 42 535 l 542 535 l 542 326 l 42 326 "},"–":{"ha":778,"x_min":0,"x_max":0,"o":"m 42 535 l 736 535 l 736 326 l 42 326 "},"—":{"ha":1333,"x_min":0,"x_max":0,"o":"m 42 535 l 1292 535 l 1292 326 l 42 326 "},"_":{"ha":722,"x_min":0,"x_max":0,"o":"m 0 -56 l 722 -56 l 722 -264 l 0 -264 "},"(":{"ha":479,"x_min":0,"x_max":0,"o":"m 226 -194 b 56 389 104 -29 56 194 b 226 972 56 583 104 807 l 472 972 b 272 389 335 807 272 583 b 472 -194 272 194 335 -29 l 226 -194 "},")":{"ha":479,"x_min":0,"x_max":0,"o":"m 7 -194 b 207 389 144 -29 207 194 b 7 972 207 583 144 807 l 253 972 b 424 389 375 807 424 583 b 253 -194 424 194 375 -29 l 7 -194 "},"{":{"ha":508,"x_min":0,"x_max":0,"o":"m 14 489 l 49 489 b 124 574 106 489 124 503 l 124 754 b 339 972 124 900 181 972 l 488 972 l 488 778 l 419 778 b 335 693 350 778 335 767 l 335 561 b 246 389 335 474 308 413 b 335 217 308 365 335 304 l 335 85 b 419 0 335 11 350 0 l 488 0 l 488 -194 l 339 -194 b 124 24 181 -194 124 -122 l 124 204 b 49 289 124 275 106 289 l 14 289 "},"}":{"ha":508,"x_min":0,"x_max":0,"o":"m 21 0 l 89 0 b 174 85 158 0 174 11 l 174 217 b 263 389 174 304 200 365 b 174 561 200 413 174 474 l 174 693 b 89 778 174 767 158 778 l 21 778 l 21 972 l 169 972 b 385 754 328 972 385 900 l 385 574 b 460 489 385 503 403 489 l 494 489 l 494 289 l 460 289 b 385 204 403 289 385 275 l 385 24 b 169 -194 385 -122 328 -194 l 21 -194 "},"[":{"ha":465,"x_min":0,"x_max":0,"o":"m 69 972 l 444 972 l 444 778 l 281 778 l 281 0 l 444 0 l 444 -194 l 69 -194 "},"]":{"ha":465,"x_min":0,"x_max":0,"o":"m 21 -194 l 21 0 l 185 0 l 185 778 l 21 778 l 21 972 l 396 972 l 396 -194 "},"‚":{"ha":300,"x_min":0,"x_max":0,"o":"m 28 239 l 272 239 l 272 0 l 196 -215 l 28 -215 l 126 0 l 28 0 "},"„":{"ha":586,"x_min":0,"x_max":0,"o":"m 314 239 l 558 239 l 558 0 l 482 -215 l 314 -215 l 413 0 l 314 0 m 126 0 l 28 0 l 28 239 l 272 239 l 272 0 l 196 -215 l 28 -215 "},"“":{"ha":586,"x_min":0,"x_max":0,"o":"m 272 518 l 28 518 l 28 757 l 104 972 l 272 972 l 174 757 l 272 757 m 314 757 l 390 972 l 558 972 l 460 757 l 558 757 l 558 518 l 314 518 "},"”":{"ha":586,"x_min":0,"x_max":0,"o":"m 314 972 l 558 972 l 558 733 l 482 518 l 314 518 l 413 733 l 314 733 m 126 733 l 28 733 l 28 972 l 272 972 l 272 733 l 196 518 l 28 518 "},"‘":{"ha":300,"x_min":0,"x_max":0,"o":"m 272 518 l 28 518 l 28 757 l 104 972 l 272 972 l 174 757 l 272 757 "},"’":{"ha":300,"x_min":0,"x_max":0,"o":"m 28 972 l 272 972 l 272 733 l 196 518 l 28 518 l 126 733 l 28 733 "},"«":{"ha":743,"x_min":0,"x_max":0,"o":"m 208 653 l 424 653 l 250 361 l 424 69 l 208 69 l 42 361 m 486 653 l 701 653 l 528 361 l 701 69 l 486 69 l 319 361 "},"»":{"ha":743,"x_min":0,"x_max":0,"o":"m 535 69 l 319 69 l 493 361 l 319 653 l 535 653 l 701 361 m 215 361 l 42 653 l 257 653 l 424 361 l 257 69 l 42 69 "},"‹":{"ha":465,"x_min":0,"x_max":0,"o":"m 208 653 l 424 653 l 250 361 l 424 69 l 208 69 l 42 361 "},"›":{"ha":465,"x_min":0,"x_max":0,"o":"m 257 69 l 42 69 l 215 361 l 42 653 l 257 653 l 424 361 "},"\"":{"ha":536,"x_min":0,"x_max":0,"o":"m 35 972 l 246 972 l 240 518 l 40 518 m 501 972 l 496 518 l 296 518 l 290 972 "},"'":{"ha":281,"x_min":0,"x_max":0,"o":"m 35 972 l 246 972 l 240 518 l 40 518 "},"ƒ":{"ha":833,"x_min":0,"x_max":0,"o":""},"⚪":{"ha":764,"x_min":0,"x_max":0,"o":"m 382 -14 b 21 347 179 -14 21 144 b 382 708 21 550 179 708 b 743 347 585 708 743 550 b 382 -14 743 144 585 -14 m 243 347 b 382 203 243 263 301 203 b 521 347 463 203 521 263 b 382 492 521 432 463 492 b 243 347 301 492 243 432 "},"⚫":{"ha":764,"x_min":0,"x_max":0,"o":"m 382 -14 b 21 347 179 -14 21 144 b 382 708 21 550 179 708 b 743 347 585 708 743 550 b 382 -14 743 144 585 -14 "},"":{"ha":1129,"x_min":0,"x_max":0,"o":"m 717 222 l 589 0 l 333 0 l 589 443 m 283 472 l 156 694 l 283 915 l 539 472 l 411 250 l 156 250 l 28 472 m 589 944 l 846 944 l 717 722 l 974 722 l 1101 501 l 589 501 l 461 722 m 846 443 l 974 222 l 846 0 l 717 222 "},"@":{"ha":1254,"x_min":0,"x_max":0,"o":"m 624 -260 b 28 304 267 -260 28 -24 b 651 944 28 661 292 944 b 1226 425 978 944 1226 722 b 800 0 1226 189 1076 0 l 669 0 l 686 89 b 500 0 644 35 582 0 b 271 275 383 0 271 69 b 572 681 271 461 357 681 b 767 540 675 681 738 628 l 789 667 l 1001 667 l 904 117 b 1111 415 1039 140 1111 269 b 651 838 1111 671 901 838 b 143 308 361 838 143 600 b 628 -153 143 38 336 -153 b 1007 -56 749 -153 886 -121 l 1007 -169 b 624 -260 888 -232 753 -260 m 490 301 b 590 175 490 213 529 175 b 736 378 699 175 736 297 b 632 501 736 450 700 501 b 490 301 533 501 490 392 "},"&":{"ha":972,"x_min":0,"x_max":0,"o":"m 25 246 b 208 503 25 392 131 464 l 225 511 b 133 717 165 583 133 639 b 425 958 133 872 264 958 b 700 733 578 958 700 878 b 542 497 700 629 639 557 l 522 485 l 601 399 l 694 569 l 944 569 l 735 257 l 972 0 l 674 0 l 596 89 b 336 -14 533 22 451 -14 b 25 246 150 -14 25 86 m 250 265 b 363 169 250 207 300 169 b 474 226 411 169 444 192 l 340 378 l 328 371 b 250 265 286 347 250 315 m 353 719 b 414 603 353 676 379 642 l 435 618 b 497 721 474 649 497 679 b 425 794 497 763 474 794 b 353 719 376 794 353 761 "},"¶":{"ha":810,"x_min":0,"x_max":0,"o":"m 579 778 l 482 778 l 482 0 l 301 0 l 301 400 b 17 672 129 410 17 513 b 325 944 17 839 140 944 l 760 944 l 760 0 l 579 0 "},"§":{"ha":738,"x_min":0,"x_max":0,"o":"m 42 399 b 167 568 42 486 93 540 b 97 725 128 601 97 650 b 371 958 97 864 201 958 b 654 708 563 958 644 835 l 446 708 b 371 786 444 753 419 786 b 306 724 329 786 306 760 b 375 650 306 686 329 665 l 501 607 b 696 407 608 571 696 524 b 571 238 696 319 644 265 b 640 81 610 204 640 156 b 367 -153 640 -58 536 -153 b 83 97 175 -153 93 -29 l 292 97 b 367 19 293 53 318 19 b 432 82 408 19 432 46 b 363 156 432 119 408 140 l 236 199 b 42 399 129 235 42 282 m 246 429 b 322 350 246 386 278 367 l 425 311 b 492 376 468 314 492 339 b 415 456 492 419 460 439 l 313 494 b 246 429 269 492 246 467 "},"©":{"ha":1069,"x_min":0,"x_max":0,"o":"m 535 -14 b 49 472 263 -14 49 200 b 535 958 49 744 263 958 b 1021 472 807 958 1021 744 b 535 -14 1021 200 807 -14 m 163 472 b 535 92 163 249 317 92 b 907 472 753 92 907 249 b 535 853 907 696 753 853 b 163 472 317 853 163 696 m 244 472 b 535 771 244 667 371 771 b 819 533 708 771 807 654 l 632 533 b 538 617 628 593 588 617 b 432 483 469 617 432 571 l 432 461 b 538 328 432 374 469 328 b 632 411 588 328 628 351 l 819 411 b 535 174 807 290 708 174 b 244 472 371 174 244 278 "},"®":{"ha":764,"x_min":0,"x_max":0,"o":"m 382 264 b 21 625 179 264 21 422 b 382 986 21 828 179 986 b 743 625 585 986 743 828 b 382 264 743 422 585 264 m 132 625 b 382 369 132 475 236 369 b 561 440 454 369 517 396 l 440 440 l 372 567 l 339 567 l 339 440 l 235 440 l 235 815 l 410 815 b 550 686 493 815 550 765 b 479 579 550 636 524 599 l 561 440 b 632 625 606 486 632 550 b 382 881 632 775 528 881 b 132 625 236 881 132 775 m 388 646 b 442 686 422 646 442 660 b 388 726 442 713 422 726 l 339 726 l 339 646 "},"™":{"ha":1185,"x_min":0,"x_max":0,"o":"m 140 796 l 0 796 l 0 944 l 439 944 l 439 796 l 299 796 l 299 444 l 140 444 m 476 944 l 742 944 l 815 582 l 889 944 l 1157 944 l 1157 444 l 1001 444 l 1001 657 l 1004 829 l 1000 829 l 963 661 l 910 444 l 717 444 l 665 656 l 628 824 l 624 824 l 626 651 l 626 444 l 476 444 "},"°":{"ha":583,"x_min":0,"x_max":0,"o":"m 292 431 b 21 694 139 431 21 546 b 292 958 21 843 139 958 b 563 694 444 958 563 843 b 292 431 563 546 444 431 m 208 694 b 292 611 208 646 243 611 b 375 694 340 611 375 646 b 292 778 375 743 340 778 b 208 694 243 778 208 743 "},"′":{"ha":397,"x_min":0,"x_max":0,"o":"m 147 972 l 369 972 l 225 518 l 14 518 "},"″":{"ha":669,"x_min":0,"x_max":0,"o":"m 147 972 l 369 972 l 225 518 l 14 518 m 419 972 l 642 972 l 497 518 l 286 518 "},"|":{"ha":350,"x_min":0,"x_max":0,"o":"m 281 972 l 281 -208 l 69 -208 l 69 972 "},"¦":{"ha":350,"x_min":0,"x_max":0,"o":"m 281 972 l 281 417 l 69 417 l 69 972 m 69 347 l 281 347 l 281 -208 l 69 -208 "},"†":{"ha":711,"x_min":0,"x_max":0,"o":"m 250 500 l 56 500 l 56 694 l 250 694 l 250 903 l 461 903 l 461 694 l 656 694 l 656 500 l 461 500 l 461 -111 l 250 -111 "},"‡":{"ha":711,"x_min":0,"x_max":0,"o":"m 461 903 l 461 694 l 656 694 l 656 500 l 461 500 l 461 292 l 656 292 l 656 97 l 461 97 l 461 -111 l 250 -111 l 250 97 l 56 97 l 56 292 l 250 292 l 250 500 l 56 500 l 56 694 l 250 694 l 250 903 "},"⬥":{"ha":764,"x_min":0,"x_max":0,"o":"m 750 347 l 382 -21 l 14 347 l 382 715 "},"⬦":{"ha":764,"x_min":0,"x_max":0,"o":"m 14 347 l 382 715 l 750 347 l 382 -21 m 382 218 l 511 347 l 382 476 l 253 347 "},"¢":{"ha":775,"x_min":0,"x_max":0,"o":"m 290 4 b 33 347 139 40 33 157 b 290 690 33 538 139 654 l 290 792 l 485 792 l 485 693 b 736 431 644 661 724 546 l 533 431 b 478 524 529 478 508 508 l 478 171 b 533 264 508 186 529 217 l 736 264 b 485 1 724 149 644 33 l 485 -97 l 290 -97 m 236 333 b 297 176 236 256 257 203 l 297 518 b 236 361 257 492 236 439 l 236 333 "},"¤":{"ha":972,"x_min":0,"x_max":0,"o":"m 486 160 b 351 188 438 160 392 169 l 208 35 l 49 194 l 199 335 b 167 472 178 376 167 422 b 199 610 167 522 178 568 l 49 750 l 208 910 l 351 757 b 486 785 392 775 438 785 b 621 757 535 785 581 775 l 764 910 l 924 750 l 774 610 b 806 472 794 568 806 522 b 774 335 806 422 794 376 l 924 194 l 764 35 l 621 188 b 486 160 581 169 535 160 m 375 472 b 486 356 375 403 421 356 b 597 472 551 356 597 403 b 486 589 597 542 551 589 b 375 472 421 589 375 542 "},"$":{"ha":847,"x_min":0,"x_max":0,"o":"m 326 1 b 35 326 125 36 46 176 l 249 326 b 333 193 253 269 279 217 l 333 389 l 332 389 b 44 660 147 424 44 508 b 326 944 44 822 157 919 l 326 1042 l 521 1042 l 521 943 b 813 618 722 908 801 768 l 599 618 b 514 751 594 675 568 728 l 514 556 l 517 556 b 803 285 703 521 803 436 b 521 0 803 122 690 25 l 521 -97 l 326 -97 m 260 678 b 333 592 260 636 283 607 l 333 761 b 260 678 292 753 260 726 m 514 183 b 588 267 556 192 588 218 b 514 353 588 308 564 338 l 514 183 "},"€":{"ha":1032,"x_min":0,"x_max":0,"o":"m 578 -14 b 126 333 357 -14 179 114 l 7 333 l 7 444 l 111 444 l 111 472 b 111 500 111 482 111 490 l 7 500 l 7 611 l 126 611 b 578 958 179 831 357 958 b 1010 583 793 958 982 831 l 779 583 b 575 753 757 704 671 753 b 364 611 475 753 399 700 l 710 611 l 678 500 l 342 500 l 342 486 l 342 458 l 342 444 l 667 444 l 635 333 l 364 333 b 575 192 399 244 475 192 b 779 361 671 192 757 240 l 1010 361 b 578 -14 982 114 793 -14 "},"£":{"ha":793,"x_min":0,"x_max":0,"o":"m 35 203 l 144 203 b 176 363 201 226 197 296 l 35 363 l 35 529 l 118 529 b 424 958 53 754 178 958 b 758 632 615 958 753 842 l 533 632 b 428 758 535 724 486 758 b 336 579 351 758 296 699 l 353 529 l 614 529 l 614 363 l 406 363 b 364 203 419 292 403 236 l 758 203 l 758 0 l 35 0 "},"¥":{"ha":863,"x_min":0,"x_max":0,"o":"m 321 224 l 58 224 l 58 335 l 321 335 l 321 404 l 58 404 l 58 515 l 228 515 l 7 944 l 251 944 l 433 539 l 614 944 l 856 944 l 636 515 l 806 515 l 806 404 l 543 404 l 543 335 l 806 335 l 806 224 l 543 224 l 543 0 l 321 0 "},"≧":{"ha":778,"x_min":0,"x_max":0,"o":"m 42 411 l 42 593 l 529 685 l 42 776 l 42 958 l 736 807 l 736 563 m 42 167 l 736 167 l 736 0 l 42 0 m 42 382 l 736 382 l 736 215 l 42 215 "},"≦":{"ha":778,"x_min":0,"x_max":0,"o":"m 736 958 l 736 776 l 249 685 l 736 593 l 736 411 l 42 563 l 42 807 m 42 167 l 736 167 l 736 0 l 42 0 m 42 382 l 736 382 l 736 215 l 42 215 "},"+":{"ha":778,"x_min":0,"x_max":0,"o":"m 42 563 l 278 563 l 278 806 l 500 806 l 500 563 l 736 563 l 736 354 l 500 354 l 500 111 l 278 111 l 278 354 l 42 354 "},"−":{"ha":778,"x_min":0,"x_max":0,"o":"m 42 563 l 736 563 l 736 354 l 42 354 "},"×":{"ha":778,"x_min":0,"x_max":0,"o":"m 54 276 l 236 458 l 54 640 l 207 793 l 389 611 l 571 793 l 724 640 l 542 458 l 724 276 l 571 124 l 389 306 l 207 124 "},"÷":{"ha":778,"x_min":0,"x_max":0,"o":"m 42 563 l 736 563 l 736 354 l 42 354 m 278 296 l 500 296 l 500 74 l 278 74 m 278 843 l 500 843 l 500 621 l 278 621 "},"=":{"ha":778,"x_min":0,"x_max":0,"o":"m 56 708 l 722 708 l 722 507 l 56 507 m 56 382 l 722 382 l 722 181 l 56 181 "},"≠":{"ha":778,"x_min":0,"x_max":0,"o":"m 185 181 l 56 181 l 56 382 l 288 382 l 353 507 l 56 507 l 56 708 l 456 708 l 508 813 l 646 813 l 593 708 l 722 708 l 722 507 l 490 507 l 425 382 l 722 382 l 722 181 l 322 181 l 269 76 l 132 76 "},">":{"ha":778,"x_min":0,"x_max":0,"o":"m 42 829 l 736 600 l 736 289 l 42 60 l 42 281 l 567 444 l 42 608 "},"<":{"ha":778,"x_min":0,"x_max":0,"o":"m 211 444 l 736 281 l 736 60 l 42 289 l 42 600 l 736 829 l 736 608 "},"≥":{"ha":778,"x_min":0,"x_max":0,"o":"m 42 258 l 42 468 l 546 608 l 42 749 l 42 958 l 736 758 l 736 458 m 42 201 l 736 201 l 736 0 l 42 0 "},"≤":{"ha":778,"x_min":0,"x_max":0,"o":"m 736 958 l 736 749 l 232 608 l 736 468 l 736 258 l 42 458 l 42 758 m 42 201 l 736 201 l 736 0 l 42 0 "},"±":{"ha":778,"x_min":0,"x_max":0,"o":"m 42 201 l 736 201 l 736 0 l 42 0 m 42 699 l 278 699 l 278 944 l 500 944 l 500 699 l 736 699 l 736 497 l 500 497 l 500 250 l 278 250 l 278 497 l 42 497 "},"≈":{"ha":778,"x_min":0,"x_max":0,"o":"m 42 692 b 242 746 111 732 176 746 b 554 675 386 746 431 675 b 736 732 610 675 665 690 l 736 531 b 536 476 667 490 601 476 b 224 547 392 476 347 547 b 42 490 168 547 113 532 l 42 692 m 42 358 b 242 413 111 399 176 413 b 554 342 386 413 431 342 b 736 399 610 342 665 357 l 736 197 b 536 143 667 157 601 143 b 224 214 392 143 347 214 b 42 157 168 214 113 199 "},"~":{"ha":861,"x_min":0,"x_max":0,"o":"m 596 322 b 465 350 549 322 514 333 l 367 385 b 306 401 340 394 322 401 b 267 353 278 401 267 383 l 267 329 l 42 329 l 42 357 b 265 622 42 536 132 622 b 396 594 313 622 347 611 l 494 560 b 556 543 521 550 539 543 b 594 592 583 543 594 561 l 594 615 l 819 615 l 819 588 b 596 322 819 408 729 322 "},"¬":{"ha":778,"x_min":0,"x_max":0,"o":"m 42 563 l 736 563 l 736 185 l 521 185 l 521 354 l 42 354 "},"^":{"ha":794,"x_min":0,"x_max":0,"o":"m 529 1000 l 767 542 l 521 542 l 397 824 l 274 542 l 28 542 l 265 1000 "},"∞":{"ha":1333,"x_min":0,"x_max":0,"o":"m 993 111 b 660 304 856 111 779 185 b 340 111 536 179 464 111 b 28 438 160 111 28 256 b 340 764 28 619 160 764 b 674 571 478 764 554 690 b 993 764 797 696 869 764 b 1306 438 1174 764 1306 619 b 993 111 1306 256 1174 111 m 238 438 b 351 328 238 375 282 328 b 536 432 421 328 479 375 b 353 547 467 504 419 547 b 238 438 283 547 238 500 m 797 443 b 981 328 867 371 914 328 b 1096 438 1050 328 1096 375 b 982 547 1096 500 1051 547 b 797 443 913 547 856 500 "},"∅":{"ha":1056,"x_min":0,"x_max":0,"o":"m 528 -14 b 272 57 433 -14 346 13 l 222 0 l 14 0 l 153 160 b 42 472 83 244 42 353 b 528 958 42 744 256 958 b 783 888 622 958 710 932 l 833 944 l 1042 944 l 903 785 b 1014 472 972 700 1014 592 b 528 -14 1014 200 800 -14 m 269 472 b 303 332 269 419 281 372 l 638 719 b 528 742 606 733 568 742 b 269 472 376 742 269 631 m 418 225 b 528 203 450 211 488 203 b 786 472 679 203 786 314 b 753 613 786 525 775 572 l 418 225 "},"∫":{"ha":449,"x_min":0,"x_max":0,"o":"m 301 33 b 50 -208 288 -122 219 -208 l -56 -208 l -56 -22 l -19 -22 b 81 57 44 -22 75 -1 l 147 814 b 399 1056 161 969 229 1056 l 504 1056 l 504 869 l 468 869 b 368 790 404 869 374 849 l 301 33 "},"Ω":{"ha":989,"x_min":0,"x_max":0,"o":"m 28 200 l 210 200 b 35 528 106 264 35 375 b 494 958 35 797 235 958 b 954 528 754 958 954 797 b 779 200 954 375 883 264 l 961 200 l 961 0 l 529 0 l 529 206 b 731 465 656 213 731 322 l 731 493 b 494 753 731 658 638 753 b 258 493 351 753 258 658 l 258 465 b 460 206 258 322 333 213 l 460 0 l 28 0 "},"∆":{"ha":889,"x_min":0,"x_max":0,"o":"m 28 181 l 279 944 l 610 944 l 861 181 l 861 0 l 28 0 m 629 208 l 444 789 l 260 208 "},"∏":{"ha":831,"x_min":0,"x_max":0,"o":"m 50 944 l 781 944 l 781 -139 l 558 -139 l 558 736 l 272 736 l 272 -139 l 50 -139 "},"∑":{"ha":757,"x_min":0,"x_max":0,"o":"m 28 944 l 729 944 l 729 739 l 297 739 l 515 472 l 515 333 l 297 67 l 729 67 l 729 -139 l 28 -139 l 28 67 l 292 403 l 28 739 "},"√":{"ha":810,"x_min":0,"x_max":0,"o":"m 149 389 l 14 389 l 14 597 l 328 597 l 408 242 l 635 1083 l 865 1083 l 567 0 l 243 0 "},"∂":{"ha":778,"x_min":0,"x_max":0,"o":"m 379 -14 b 39 317 174 -14 39 125 b 315 622 39 504 161 622 b 514 504 408 622 479 579 l 514 514 b 243 765 514 671 419 765 l 150 765 l 150 951 l 271 951 b 739 472 569 951 739 792 l 739 417 b 379 -14 739 133 593 -14 m 264 311 b 382 172 264 224 311 172 b 507 318 467 172 507 243 b 388 456 507 399 463 456 b 264 311 313 456 264 399 "},"µ":{"ha":761,"x_min":0,"x_max":0,"o":"m 49 694 l 271 694 l 271 279 b 375 175 271 213 307 175 b 490 319 447 175 490 218 l 490 694 l 713 694 l 713 0 l 497 0 l 497 135 b 297 0 461 63 400 0 b 271 1 289 0 279 0 l 271 -278 l 49 -278 "},"%":{"ha":1253,"x_min":0,"x_max":0,"o":"m 885 944 l 1097 944 l 365 0 l 153 0 m 28 694 b 293 958 28 858 140 958 b 558 694 446 958 558 858 b 293 431 558 531 446 431 b 28 694 140 431 28 531 m 231 688 b 293 610 231 639 254 610 b 356 688 332 610 356 639 l 356 701 b 293 779 356 750 332 779 b 231 701 254 779 231 750 l 231 688 m 694 250 b 960 514 694 414 807 514 b 1225 250 1113 514 1225 414 b 960 -14 1225 86 1113 -14 b 694 250 807 -14 694 86 m 897 243 b 960 165 897 194 921 165 b 1022 243 999 165 1022 194 l 1022 257 b 960 335 1022 306 999 335 b 897 257 921 335 897 306 l 897 243 "},"‰":{"ha":1822,"x_min":0,"x_max":0,"o":"m 885 944 l 1097 944 l 365 0 l 153 0 m 28 694 b 293 958 28 858 140 958 b 558 694 446 958 558 858 b 293 431 558 531 446 431 b 28 694 140 431 28 531 m 231 688 b 293 610 231 639 254 610 b 356 688 332 610 356 639 l 356 701 b 293 779 356 750 332 779 b 231 701 254 779 231 750 l 231 688 m 694 250 b 960 514 694 414 807 514 b 1225 250 1113 514 1225 414 b 960 -14 1225 86 1113 -14 b 694 250 807 -14 694 86 m 897 243 b 960 165 897 194 921 165 b 1022 243 999 165 1022 194 l 1022 257 b 960 335 1022 306 999 335 b 897 257 921 335 897 306 l 897 243 m 1264 250 b 1529 514 1264 414 1376 514 b 1794 250 1682 514 1794 414 b 1529 -14 1794 86 1682 -14 b 1264 250 1376 -14 1264 86 m 1467 243 b 1529 165 1467 194 1490 165 b 1592 243 1568 165 1592 194 l 1592 257 b 1529 335 1592 306 1568 335 b 1467 257 1490 335 1467 306 l 1467 243 "},"↑":{"ha":972,"x_min":0,"x_max":0,"o":"m 42 565 l 486 958 l 931 565 l 931 275 l 778 417 l 594 590 l 597 417 l 597 0 l 375 0 l 375 417 l 378 590 l 194 417 l 42 275 "},"↗":{"ha":974,"x_min":0,"x_max":0,"o":"m 386 583 l 546 739 l 347 736 l 69 736 l 278 944 l 904 944 l 904 318 l 696 110 l 696 388 l 699 586 l 543 426 l 192 75 l 35 232 "},"→":{"ha":1056,"x_min":0,"x_max":0,"o":"m 486 181 l 660 364 l 486 361 l 69 361 l 69 583 l 486 583 l 660 581 l 486 764 l 344 917 l 635 917 l 1028 472 l 635 28 l 344 28 "},"↘":{"ha":974,"x_min":0,"x_max":0,"o":"m 192 869 l 543 518 l 699 358 l 696 557 l 696 835 l 904 626 l 904 0 l 278 0 l 69 208 l 347 208 l 546 206 l 386 361 l 35 713 "},"↓":{"ha":972,"x_min":0,"x_max":0,"o":"m 42 669 l 194 528 l 378 354 l 375 528 l 375 944 l 597 944 l 597 528 l 594 354 l 778 528 l 931 669 l 931 379 l 486 -14 l 42 379 "},"↙":{"ha":974,"x_min":0,"x_max":0,"o":"m 69 626 l 278 835 l 278 557 l 275 358 l 431 518 l 782 869 l 939 713 l 588 361 l 428 206 l 626 208 l 904 208 l 696 0 l 69 0 "},"←":{"ha":1056,"x_min":0,"x_max":0,"o":"m 421 28 l 28 472 l 421 917 l 711 917 l 569 764 l 396 581 l 569 583 l 986 583 l 986 361 l 569 361 l 396 364 l 569 181 l 711 28 "},"↖":{"ha":974,"x_min":0,"x_max":0,"o":"m 69 944 l 696 944 l 904 736 l 626 736 l 428 739 l 588 583 l 939 232 l 782 75 l 431 426 l 275 586 l 278 388 l 278 110 l 69 318 "},"↔":{"ha":1556,"x_min":0,"x_max":0,"o":"m 986 181 l 1160 364 l 986 361 l 569 361 l 396 364 l 569 181 l 711 28 l 421 28 l 28 472 l 421 917 l 711 917 l 569 764 l 396 581 l 569 583 l 986 583 l 1160 581 l 986 764 l 844 917 l 1135 917 l 1528 472 l 1135 28 l 844 28 "},"↕":{"ha":972,"x_min":0,"x_max":0,"o":"m 42 406 l 194 264 l 378 90 l 375 264 l 375 681 l 378 854 l 194 681 l 42 539 l 42 829 l 486 1222 l 931 829 l 931 539 l 778 681 l 594 854 l 597 681 l 597 264 l 594 90 l 778 264 l 931 406 l 931 115 l 486 -278 l 42 115 "},"↩":{"ha":1576,"x_min":0,"x_max":0,"o":"m 569 139 l 396 142 l 569 -42 l 711 -194 l 421 -194 l 28 250 l 421 694 l 711 694 l 569 542 l 396 358 l 569 361 l 1104 361 b 1326 542 1242 361 1326 422 b 1104 722 1326 661 1242 722 l 1007 722 l 1007 944 l 1104 944 b 1549 542 1363 944 1549 788 b 1104 139 1549 296 1363 139 "},"↪":{"ha":1576,"x_min":0,"x_max":0,"o":"m 472 139 b 28 542 214 139 28 296 b 472 944 28 788 214 944 l 569 944 l 569 722 l 472 722 b 250 542 335 722 250 661 b 472 361 250 422 335 361 l 1007 361 l 1181 358 l 1007 542 l 865 694 l 1156 694 l 1549 250 l 1156 -194 l 865 -194 l 1007 -42 l 1181 142 l 1007 139 l 472 139 "},"↺":{"ha":1007,"x_min":0,"x_max":0,"o":"m 528 -14 b 76 431 274 -14 76 181 l 306 431 b 528 208 306 301 399 208 b 750 431 657 208 750 301 b 500 653 750 560 657 653 l 458 653 l 372 654 l 583 458 l 307 458 l 42 764 l 307 1069 l 583 1069 l 372 874 l 458 875 l 500 875 b 979 431 782 875 979 681 b 528 -14 979 181 782 -14 "},"↻":{"ha":1007,"x_min":0,"x_max":0,"o":"m 479 -14 b 28 431 225 -14 28 181 b 507 875 28 681 225 875 l 549 875 l 635 874 l 424 1069 l 700 1069 l 965 764 l 700 458 l 424 458 l 635 654 l 549 653 l 507 653 b 257 431 350 653 257 560 b 479 208 257 301 350 208 b 701 431 608 208 701 301 l 931 431 b 479 -14 931 181 733 -14 "},"⟵":{"ha":1472,"x_min":0,"x_max":0,"o":"m 421 917 l 711 917 l 569 764 l 396 581 l 569 583 l 1403 583 l 1403 361 l 569 361 l 396 364 l 569 181 l 711 28 l 421 28 l 28 472 "},"⟶":{"ha":1472,"x_min":0,"x_max":0,"o":"m 69 583 l 903 583 l 1076 581 l 903 764 l 761 917 l 1051 917 l 1444 472 l 1051 28 l 761 28 l 903 181 l 1076 364 l 903 361 l 69 361 "},"●":{"ha":1028,"x_min":0,"x_max":0,"o":"m 514 -14 b 28 472 242 -14 28 200 b 514 958 28 744 242 958 b 1000 472 786 958 1000 744 b 514 -14 1000 200 786 -14 "},"○":{"ha":1028,"x_min":0,"x_max":0,"o":"m 514 -14 b 28 472 242 -14 28 200 b 514 958 28 744 242 958 b 1000 472 786 958 1000 744 b 514 -14 1000 200 786 -14 m 256 472 b 514 203 256 314 363 203 b 772 472 665 203 772 314 b 514 742 772 631 665 742 b 256 472 363 742 256 631 "},"◆":{"ha":1000,"x_min":0,"x_max":0,"o":"m 993 472 l 500 -21 l 7 472 l 500 965 "},"◇":{"ha":1000,"x_min":0,"x_max":0,"o":"m 7 472 l 500 965 l 993 472 l 500 -21 m 500 278 l 694 472 l 500 667 l 306 472 "},"◊":{"ha":863,"x_min":0,"x_max":0,"o":"m 42 472 l 265 944 l 597 944 l 821 472 l 597 0 l 265 0 m 433 100 l 592 472 l 433 844 l 274 472 "},"■":{"ha":1028,"x_min":0,"x_max":0,"o":"m 986 944 l 986 0 l 42 0 l 42 944 "},"□":{"ha":1028,"x_min":0,"x_max":0,"o":"m 986 944 l 986 0 l 42 0 l 42 944 m 764 217 l 764 728 l 264 728 l 264 217 "},"▪":{"ha":750,"x_min":0,"x_max":0,"o":"m 722 694 l 722 0 l 28 0 l 28 694 "},"▫":{"ha":761,"x_min":0,"x_max":0,"o":"m 28 694 l 733 694 l 733 0 l 28 0 m 525 203 l 525 492 l 236 492 l 236 203 "},"◻":{"ha":1028,"x_min":0,"x_max":0,"o":"m 986 944 l 986 0 l 42 0 l 42 944 m 764 217 l 764 728 l 264 728 l 264 217 "},"◼":{"ha":1028,"x_min":0,"x_max":0,"o":"m 986 944 l 986 0 l 42 0 l 42 944 "},"▲":{"ha":1111,"x_min":0,"x_max":0,"o":"m 556 963 l 1111 0 l 0 0 "},"▶":{"ha":904,"x_min":0,"x_max":0,"o":"m 897 472 l 42 -21 l 42 965 "},"▼":{"ha":1111,"x_min":0,"x_max":0,"o":"m 1111 944 l 556 -18 l 0 944 "},"◀":{"ha":904,"x_min":0,"x_max":0,"o":"m 863 -21 l 7 472 l 863 965 "},"△":{"ha":1111,"x_min":0,"x_max":0,"o":"m 556 963 l 1111 0 l 0 0 m 758 204 l 556 556 l 353 204 "},"▷":{"ha":904,"x_min":0,"x_max":0,"o":"m 42 965 l 897 472 l 42 -21 m 508 472 l 236 629 l 236 315 "},"▽":{"ha":1111,"x_min":0,"x_max":0,"o":"m 1111 944 l 556 -18 l 0 944 m 556 389 l 758 740 l 353 740 "},"◁":{"ha":904,"x_min":0,"x_max":0,"o":"m 7 472 l 863 965 l 863 -21 m 668 315 l 668 629 l 396 472 "},"̈":{"ha":0,"x_min":0,"x_max":0,"o":"m 114 944 l 317 944 l 317 747 l 114 747 m 378 944 l 581 944 l 581 747 l 378 747 "},"̇":{"ha":0,"x_min":0,"x_max":0,"o":"m 232 972 l 463 972 l 463 747 l 232 747 "},"̀":{"ha":0,"x_min":0,"x_max":0,"o":"m 139 979 l 361 979 l 458 743 l 250 743 "},"́":{"ha":0,"x_min":0,"x_max":0,"o":"m 236 743 l 333 979 l 556 979 l 444 743 "},"̂":{"ha":0,"x_min":0,"x_max":0,"o":"m 465 979 l 606 743 l 424 743 l 347 858 l 271 743 l 89 743 l 229 979 "},"̊":{"ha":0,"x_min":0,"x_max":0,"o":"m 347 736 b 165 910 243 736 165 810 b 347 1083 165 1010 243 1083 b 529 910 451 1083 529 1010 b 347 736 529 810 451 736 m 285 910 b 347 847 285 872 313 847 b 410 910 382 847 410 872 b 347 972 410 947 382 972 b 285 910 313 972 285 947 "},"̃":{"ha":0,"x_min":0,"x_max":0,"o":"m 469 742 b 350 782 419 742 389 756 l 307 811 b 239 840 283 828 264 840 b 189 750 197 840 189 807 l 51 750 b 225 981 51 860 79 981 b 344 940 275 981 306 967 l 388 911 b 456 882 411 894 431 882 b 506 972 497 882 506 915 l 643 972 b 469 742 643 863 615 742 "},"̧":{"ha":0,"x_min":0,"x_max":0,"o":"m 438 42 l 372 -54 b 524 -185 460 -60 524 -97 b 343 -319 524 -282 447 -319 l 218 -319 l 218 -203 l 317 -203 b 372 -171 344 -203 372 -199 b 317 -140 372 -143 344 -140 l 218 -140 l 218 -53 l 281 42 "},"̸":{"ha":0,"x_min":0,"x_max":0,"o":"m 792 750 l 168 -56 l 42 -56 l 665 750 "},"¨":{"ha":694,"x_min":0,"x_max":0,"o":"m 114 944 l 317 944 l 317 747 l 114 747 m 378 944 l 581 944 l 581 747 l 378 747 "},"˙":{"ha":694,"x_min":0,"x_max":0,"o":"m 232 972 l 463 972 l 463 747 l 232 747 "},"`":{"ha":694,"x_min":0,"x_max":0,"o":"m 139 979 l 361 979 l 458 743 l 250 743 "},"´":{"ha":694,"x_min":0,"x_max":0,"o":"m 236 743 l 333 979 l 556 979 l 444 743 "},"˝":{"ha":694,"x_min":0,"x_max":0,"o":"m 121 743 l 218 979 l 404 979 l 293 743 m 457 979 l 643 979 l 532 743 l 360 743 "},"ˆ":{"ha":694,"x_min":0,"x_max":0,"o":"m 465 979 l 606 743 l 424 743 l 347 858 l 271 743 l 89 743 l 229 979 "},"ˇ":{"ha":694,"x_min":0,"x_max":0,"o":"m 89 979 l 271 979 l 347 864 l 424 979 l 606 979 l 465 743 l 229 743 "},"˘":{"ha":694,"x_min":0,"x_max":0,"o":"m 347 736 b 104 979 201 736 104 840 l 254 979 b 347 875 254 917 290 875 b 440 979 404 875 440 917 l 590 979 b 347 736 590 840 493 736 "},"˚":{"ha":694,"x_min":0,"x_max":0,"o":"m 347 736 b 165 910 243 736 165 810 b 347 1083 165 1010 243 1083 b 529 910 451 1083 529 1010 b 347 736 529 810 451 736 m 285 910 b 347 847 285 872 313 847 b 410 910 382 847 410 872 b 347 972 410 947 382 972 b 285 910 313 972 285 947 "},"˜":{"ha":694,"x_min":0,"x_max":0,"o":"m 469 742 b 350 782 419 742 389 756 l 307 811 b 239 840 283 828 264 840 b 189 750 197 840 189 807 l 51 750 b 225 981 51 860 79 981 b 344 940 275 981 306 967 l 388 911 b 456 882 411 894 431 882 b 506 972 497 882 506 915 l 643 972 b 469 742 643 863 615 742 "},"¯":{"ha":694,"x_min":0,"x_max":0,"o":"m 139 938 l 556 938 l 556 785 l 139 785 "},"¸":{"ha":694,"x_min":0,"x_max":0,"o":"m 438 42 l 372 -54 b 524 -185 460 -60 524 -97 b 343 -319 524 -282 447 -319 l 218 -319 l 218 -203 l 317 -203 b 372 -171 344 -203 372 -199 b 317 -140 372 -143 344 -140 l 218 -140 l 218 -53 l 281 42 "},"˛":{"ha":694,"x_min":0,"x_max":0,"o":"m 347 0 b 244 -94 282 -17 244 -54 b 328 -147 244 -131 274 -147 l 383 -147 l 383 -306 l 282 -306 b 58 -144 182 -306 58 -276 b 224 63 58 -36 140 22 l 347 0 "}}}
